<?xml version="1.0" encoding="UTF-8"?><svg id="Layer_2" xmlns="http://www.w3.org/2000/svg" viewBox="0 0 58.21 61.58"><defs><style>.cls-1{fill:#ff9d26;}.cls-2{fill:#fff;}.cls-3{fill:#ff8400;}.cls-4{fill:#ba6000;}.cls-5{fill:#bcbec0;}.cls-6{fill:#1d374e;}.cls-7{opacity:.3;}</style></defs><g id="Layer_1-2"><g><g><path class="cls-7" d="M44.26,47.26c-3.62,0-7.04-.82-9.63-2.31-2.69-1.56-4.17-3.66-4.17-5.93,0-2.27,1.48-4.37,4.17-5.93,2.58-1.49,6-2.31,9.63-2.31s7.04,.82,9.63,2.31c2.69,1.55,4.17,3.66,4.17,5.93,0,2.27-1.48,4.37-4.17,5.93-2.58,1.49-6,2.31-9.63,2.31Z"/><path class="cls-3" d="M57.4,39.1V7.6H31.1v31.5c0,1.95,1.28,3.88,3.86,5.37,5.14,2.97,13.46,2.96,18.6,0,2.56-1.5,3.85-3.43,3.85-5.37Z"/><g><path class="cls-5" d="M50.19,30.43c0,3.28-2.66,5.18-5.94,5.18s-5.94-1.9-5.94-5.18,2.66-4.88,5.94-4.88,5.94,1.6,5.94,4.88Z"/><path class="cls-6" d="M44.25,26.9s-5.25,7.35,0,7.35,0-7.35,0-7.35Z"/><path class="cls-2" d="M46.21,32.14c.04,.27-.08,.5-.25,.52-.17,.02-.34-.19-.38-.46-.04-.27,.07-.5,.25-.52,.17-.02,.34,.19,.38,.46Z"/></g><path class="cls-1" d="M53.56,12.96c-5.14,2.97-13.46,2.97-18.6,0-5.13-2.97-5.13-7.77,0-10.74,5.14-2.97,13.46-2.97,18.6,0,5.13,2.97,5.13,7.77,0,10.74Z"/><path class="cls-4" d="M56.42,8.24c-.26-1.57-1.43-3.1-3.52-4.3-4.77-2.76-12.5-2.76-17.27,0-2.08,1.2-3.25,2.73-3.52,4.3-.33-2.01,.85-4.08,3.52-5.62C40.4-.14,48.13-.14,52.9,2.62c2.66,1.54,3.84,3.61,3.52,5.62Z"/><path class="cls-3" d="M56.42,8.24v.03c-.26,1.58-1.43,3.1-3.52,4.31-4.77,2.75-12.5,2.75-17.27,0-2.08-1.21-3.25-2.73-3.52-4.31v-.03c.26-1.57,1.43-3.1,3.52-4.3,4.77-2.76,12.5-2.76,17.27,0,2.08,1.2,3.25,2.73,3.52,4.3Z"/><path class="cls-4" d="M44.26,24.39c-3.51,0-7.01-.77-9.68-2.31-2.72-1.57-3.79-3.71-3.79-6.01,0-.42,.41,2.19,4.55,5.15,4.92,2.84,12.93,2.84,17.85,0,2.23-1.29,4.57-5.55,4.57-5.13-.01,2.3-1.1,4.43-3.81,5.99-2.67,1.54-6.17,2.31-9.68,2.31Z"/><path class="cls-1" d="M58.13,13.57s0,0-.01,0c-.08-.78-.32-1.53-.72-2.24v3.4c-.05,1.73-2.02,4.11-4.22,5.38-4.92,2.84-12.93,2.84-17.85,0-2.23-1.29-4.22-3.72-4.22-5.46v-3.32c-.4,.71-.65,1.47-.72,2.24,0,0,0,0-.01,0-.16,1.15,0,2.33,0,2.33v-.02c.21,2.12,1.67,4.08,4.2,5.55,2.67,1.54,6.17,2.31,9.68,2.31s7.01-.77,9.68-2.31c2.53-1.46,3.99-3.42,4.18-5.55l.02,.02s.16-1.18,0-2.33Z"/><path class="cls-4" d="M44.26,39.48c-3.51,0-7.01-.77-9.68-2.31-2.72-1.57-3.79-3.71-3.79-6.01,0-.41,.41,2.19,4.55,5.15,4.92,2.84,12.93,2.84,17.85,0,2.23-1.29,4.57-5.55,4.57-5.13-.01,2.3-1.1,4.43-3.81,5.99-2.67,1.54-6.17,2.31-9.68,2.31Z"/><path class="cls-1" d="M58.13,28.66s0,0-.01,0c-.08-.78-.32-1.53-.72-2.24v3.4c-.05,1.74-2.02,4.11-4.22,5.39-4.92,2.84-12.93,2.84-17.85,0-2.23-1.29-4.22-3.72-4.22-5.46v-3.33c-.4,.72-.65,1.47-.72,2.24,0,0,0,0-.01,0-.16,1.14,0,2.33,0,2.33v-.02c.21,2.12,1.67,4.08,4.2,5.55,2.67,1.54,6.17,2.31,9.68,2.31s7.01-.77,9.68-2.31c2.53-1.46,3.99-3.42,4.18-5.55l.02,.02s.16-1.18,0-2.33Z"/><path class="cls-4" d="M52.49,5.78c-.55,.32-1.43,.32-1.98,0-.55-.32-.55-.83,0-1.15,.55-.32,1.44-.32,1.98,0,.55,.32,.55,.83,0,1.15Z"/></g><g><path class="cls-7" d="M13.95,47.26c-3.62,0-7.04-.82-9.63-2.31-2.69-1.56-4.17-3.66-4.17-5.93,0-2.27,1.48-4.37,4.17-5.93,2.58-1.49,6-2.31,9.63-2.31s7.04,.82,9.63,2.31c2.69,1.55,4.17,3.66,4.17,5.93,0,2.27-1.48,4.37-4.17,5.93-2.58,1.49-6,2.31-9.63,2.31Z"/><path class="cls-3" d="M27.1,39.1V7.6H.79v31.5c0,1.95,1.28,3.88,3.85,5.37,5.14,2.97,13.46,2.96,18.6,0,2.56-1.5,3.85-3.43,3.85-5.37Z"/><g><path class="cls-5" d="M19.89,30.43c0,3.28-2.66,5.18-5.94,5.18s-5.94-1.9-5.94-5.18,2.66-4.88,5.94-4.88,5.94,1.6,5.94,4.88Z"/><path class="cls-6" d="M13.95,26.9s-5.26,7.35,0,7.35,0-7.35,0-7.35Z"/><path class="cls-2" d="M15.9,32.14c.04,.27-.08,.5-.25,.52-.17,.02-.34-.19-.38-.46-.04-.27,.07-.5,.25-.52,.17-.02,.34,.19,.38,.46Z"/></g><path class="cls-1" d="M23.25,12.96c-5.14,2.97-13.46,2.97-18.6,0C-.48,9.99-.48,5.19,4.65,2.23,9.79-.74,18.11-.74,23.25,2.23c5.13,2.97,5.13,7.77,0,10.74Z"/><path class="cls-4" d="M26.11,8.24c-.26-1.57-1.43-3.1-3.52-4.3C17.83,1.18,10.1,1.18,5.33,3.94c-2.08,1.2-3.25,2.73-3.52,4.3-.33-2.01,.85-4.08,3.52-5.62C10.1-.14,17.83-.14,22.59,2.62c2.66,1.54,3.84,3.61,3.52,5.62Z"/><path class="cls-3" d="M26.11,8.24v.03c-.26,1.58-1.43,3.1-3.52,4.31-4.77,2.75-12.5,2.75-17.27,0-2.08-1.21-3.25-2.73-3.52-4.31v-.03c.26-1.57,1.43-3.1,3.52-4.3,4.77-2.76,12.5-2.76,17.27,0,2.08,1.2,3.25,2.73,3.52,4.3Z"/><path class="cls-4" d="M13.95,24.39c-3.51,0-7.01-.77-9.68-2.31-2.72-1.57-3.79-3.71-3.79-6.01,0-.42,.41,2.19,4.55,5.15,4.92,2.84,12.93,2.84,17.85,0,2.23-1.29,4.57-5.55,4.57-5.13-.01,2.3-1.1,4.43-3.81,5.99-2.67,1.54-6.17,2.31-9.68,2.31Z"/><path class="cls-1" d="M27.83,13.57s0,0-.01,0c-.07-.78-.32-1.53-.72-2.24v3.4c-.05,1.73-2.02,4.11-4.22,5.38-4.92,2.84-12.93,2.84-17.85,0-2.23-1.29-4.22-3.72-4.22-5.46v-3.32c-.4,.71-.65,1.47-.72,2.24,0,0,0,0-.01,0C-.09,14.71,.07,15.89,.07,15.89l.02-.02c.19,2.12,1.65,4.08,4.18,5.55,2.67,1.54,6.17,2.31,9.68,2.31s7.01-.77,9.68-2.31c2.53-1.46,3.99-3.42,4.18-5.55v.02s.17-1.18,.01-2.33Z"/><path class="cls-4" d="M13.95,39.48c-3.51,0-7.01-.77-9.68-2.31-2.72-1.57-3.79-3.71-3.79-6.01,0-.41,.41,2.19,4.55,5.15,4.92,2.84,12.93,2.84,17.85,0,2.23-1.29,4.57-5.55,4.57-5.13-.01,2.3-1.1,4.43-3.81,5.99-2.67,1.54-6.17,2.31-9.68,2.31Z"/><path class="cls-1" d="M27.83,28.66s0,0-.01,0c-.07-.78-.32-1.53-.72-2.24v3.4c-.05,1.74-2.02,4.11-4.22,5.39-4.92,2.84-12.93,2.84-17.85,0-2.23-1.29-4.22-3.72-4.22-5.46v-3.33c-.4,.72-.65,1.47-.72,2.24,0,0,0,0-.01,0-.16,1.14,0,2.33,0,2.33l.02-.02c.19,2.12,1.65,4.08,4.18,5.55,2.67,1.54,6.17,2.31,9.68,2.31s7.01-.77,9.68-2.31c2.53-1.46,3.99-3.42,4.18-5.55v.02s.17-1.18,.01-2.33Z"/><path class="cls-4" d="M22.19,5.78c-.55,.32-1.43,.32-1.98,0-.55-.32-.55-.83,0-1.15,.55-.32,1.44-.32,1.98,0,.55,.32,.55,.83,0,1.15Z"/></g><g><path class="cls-7" d="M28.98,61.58c-3.62,0-7.04-.82-9.63-2.31-2.69-1.56-4.17-3.66-4.17-5.93,0-2.27,1.48-4.37,4.17-5.93,2.58-1.49,6-2.31,9.63-2.31s7.04,.82,9.63,2.31c2.69,1.56,4.17,3.66,4.17,5.93,0,2.27-1.48,4.37-4.17,5.93-2.58,1.49-6,2.31-9.63,2.31Z"/><path class="cls-3" d="M42.13,53.42V21.92H15.83v31.5c0,1.95,1.28,3.88,3.86,5.37,5.14,2.97,13.46,2.96,18.6,0,2.56-1.5,3.85-3.43,3.85-5.37Z"/><g><path class="cls-5" d="M34.92,44.75c0,3.28-2.66,5.18-5.94,5.18s-5.94-1.9-5.94-5.18,2.66-4.88,5.94-4.88,5.94,1.6,5.94,4.88Z"/><path class="cls-6" d="M28.98,41.22s-5.26,7.35,0,7.35,0-7.35,0-7.35Z"/><path class="cls-2" d="M30.93,46.46c.04,.27-.08,.51-.25,.52-.17,.02-.34-.19-.38-.46-.04-.27,.07-.5,.25-.52,.17-.02,.34,.19,.38,.46Z"/></g><path class="cls-1" d="M38.29,27.28c-5.14,2.97-13.46,2.97-18.6,0-5.13-2.97-5.13-7.77,0-10.74,5.14-2.97,13.46-2.97,18.6,0,5.13,2.97,5.13,7.77,0,10.74Z"/><path class="cls-4" d="M41.14,22.56c-.26-1.57-1.43-3.1-3.52-4.3-4.77-2.76-12.5-2.76-17.27,0-2.08,1.2-3.25,2.73-3.52,4.3-.33-2.01,.85-4.08,3.52-5.62,4.77-2.75,12.5-2.75,17.27,0,2.66,1.54,3.84,3.61,3.52,5.62Z"/><path class="cls-3" d="M41.14,22.56v.03c-.26,1.58-1.43,3.1-3.52,4.31-4.77,2.75-12.5,2.75-17.27,0-2.08-1.21-3.25-2.73-3.52-4.31v-.03c.26-1.57,1.43-3.1,3.52-4.3,4.77-2.76,12.5-2.76,17.27,0,2.08,1.2,3.25,2.73,3.52,4.3Z"/><path class="cls-4" d="M28.98,38.71c-3.51,0-7.01-.77-9.68-2.31-2.72-1.57-3.79-3.71-3.79-6.01,0-.42,.41,2.19,4.55,5.15,4.92,2.84,12.93,2.84,17.85,0,2.23-1.29,4.57-5.55,4.57-5.13-.01,2.3-1.1,4.43-3.81,5.99-2.67,1.54-6.17,2.31-9.68,2.31Z"/><path class="cls-1" d="M42.86,27.89s0,0-.01,0c-.08-.78-.32-1.53-.72-2.24v3.4c-.05,1.73-2.02,4.11-4.22,5.38-4.92,2.84-12.93,2.84-17.85,0-2.23-1.29-4.22-3.72-4.22-5.46v-3.32c-.4,.71-.65,1.47-.72,2.24,0,0,0,0-.01,0-.16,1.14,0,2.33,0,2.33l.02-.02c.19,2.12,1.65,4.08,4.18,5.55,2.67,1.54,6.17,2.31,9.68,2.31s7.01-.77,9.68-2.31c2.53-1.46,3.99-3.42,4.18-5.55l.02,.02s.16-1.18,0-2.33Z"/><path class="cls-4" d="M28.98,53.8c-3.51,0-7.01-.77-9.68-2.31-2.72-1.57-3.79-3.71-3.79-6.01,0-.41,.41,2.19,4.55,5.15,4.92,2.84,12.93,2.84,17.85,0,2.23-1.29,4.57-5.55,4.57-5.13-.01,2.3-1.1,4.43-3.81,6-2.67,1.54-6.17,2.31-9.68,2.31Z"/><path class="cls-1" d="M42.86,42.98s0,0-.01,0c-.08-.78-.32-1.53-.72-2.24v3.4c-.05,1.74-2.02,4.11-4.22,5.39-4.92,2.84-12.93,2.84-17.85,0-2.23-1.29-4.22-3.72-4.22-5.46v-3.33c-.4,.72-.65,1.47-.72,2.24,0,0,0,0-.01,0-.16,1.14,0,2.33,0,2.33l.02-.02c.19,2.12,1.65,4.08,4.18,5.55,2.67,1.54,6.17,2.31,9.68,2.31s7.01-.77,9.68-2.31c2.53-1.46,3.99-3.42,4.18-5.55l.02,.02s.16-1.18,0-2.33Z"/><path class="cls-4" d="M37.22,20.1c-.55,.32-1.43,.32-1.98,0-.55-.32-.55-.83,0-1.15,.55-.32,1.44-.32,1.98,0,.55,.32,.55,.83,0,1.15Z"/></g></g></g></svg>