<?xml version="1.0" encoding="UTF-8"?><svg id="Layer_2" xmlns="http://www.w3.org/2000/svg" viewBox="0 0 59.43 82.69"><defs><style>.cls-1{fill:#ff9d26;}.cls-2{fill:#ffab45;}.cls-3{fill:#ff8400;}.cls-4{fill:#ba6000;}.cls-5{fill:#303033;}.cls-6{fill:#121214;}.cls-7{fill:#2481ad;}.cls-8{fill:#0b2633;}.cls-9{fill:#185673;}.cls-10{fill:#535359;}.cls-11{opacity:.3;}</style></defs><g id="Layer_1-2"><g><polygon class="cls-11" points="0 71.83 18.8 82.69 59.43 59.26 40.63 48.41 0 71.83"/><polygon class="cls-9" points="38.9 4.51 15.33 18.12 4.03 37.69 4.03 70.88 38.9 50.74 38.9 4.51"/><polygon class="cls-4" points="54.87 13.73 31.3 27.34 20 46.91 20 80.09 54.87 59.96 54.87 13.73"/><g><path class="cls-3" d="M50.61,51.96l-5.44-3.15c.26-.78,.41-1.55,.41-2.29v-6.47c0-.64-.11-1.17-.3-1.61l5.42-9.38c.36-.62,.47-1.27,.31-1.7-.44,.11-.94,.53-1.28,1.12l-5.28,9.14c-.62-.07-1.33,.09-2.11,.54l-5.6,3.24c-.75,.43-1.45,1.08-2.05,1.82l-.85-.49-4.5-2.6s-.08-.04-.12-.05l-.04-.02c-.51-.12-1.21,.34-1.67,1.12-.51,.88-.51,1.82,0,2.11l5.46,3.15c-.22,.7-.34,1.4-.34,2.06v6.47c0,.78,.17,1.4,.45,1.88l-5.38,9.31c-.36,.62-.46,1.26-.31,1.69,.12-.03,.24-.08,.37-.15,.33-.2,.67-.53,.92-.97l5.37-9.32c.56,0,1.17-.18,1.83-.56l5.6-3.24c.69-.4,1.32-.97,1.89-1.63l.85,.49h0l4.64,2.67c.25,.1,.54,.05,.84-.12,.33-.2,.67-.53,.91-.97,.51-.88,.51-1.82,0-2.11Zm-6.77-3.46c0,.97-.68,2.15-1.51,2.63l-5.6,3.25c-.64,.36-1.18,.23-1.41-.29-.57,.07-.97-.34-.97-1.08v-6.47c0-.97,.69-2.15,1.52-2.63l5.6-3.24c.64-.36,1.17-.23,1.4,.29,.57-.07,.97,.33,.97,1.08v6.47Z"/><path class="cls-1" d="M44.21,52.48c-.57,.67-1.2,1.23-1.88,1.62l-5.6,3.24c-.66,.39-1.27,.56-1.83,.56l-5.37,9.32c-.26,.44-.59,.78-.92,.97-.33,.19-.67,.24-.92,.09-.15-.09-.26-.23-.31-.42,.12-.03,.24-.08,.37-.15,.33-.2,.67-.53,.92-.97l5.37-9.32c.56,0,1.17-.18,1.83-.56l5.6-3.24c.69-.4,1.32-.97,1.89-1.63l.85,.49Z"/><path class="cls-1" d="M51.46,54.54c-.25,.44-.59,.78-.92,.97-.33,.19-.66,.24-.92,.09l-.78-.45c.25,.1,.54,.05,.84-.12,.33-.2,.67-.53,.91-.97,.51-.88,.51-1.82,0-2.11l-5.44-3.15c.26-.78,.41-1.55,.41-2.29v-6.47c0-.64-.11-1.17-.3-1.61l5.42-9.38c.36-.62,.47-1.27,.31-1.7,.2-.04,.39-.02,.55,.07,.51,.29,.51,1.24,0,2.11l-5.41,9.39c.19,.44,.3,.97,.3,1.6v6.47c0,.74-.15,1.52-.41,2.29l5.45,3.15c.51,.29,.51,1.23,0,2.11Z"/><path class="cls-1" d="M43.61,41.22c-.38-.21-.5-.37-1.28-.08l-5.6,3.24c-.85,.49-1.52,1.66-1.52,2.63v6.47c0,.24,.06,.67,.52,1.03-1.22-.06-1.38-.77-1.38-1.5v-6.47c0-.97,.69-2.15,1.52-2.63l5.6-3.24c.64-.36,1.49-.43,2.14,.56Z"/></g><polygon class="cls-3" points="20 80.09 4.03 70.88 4.03 37.69 20 46.91 20 80.09"/><rect class="cls-2" x="6.36" y="23.3" width="22.6" height="18.44" transform="translate(-19.33 31.55) rotate(-60)"/><polygon class="cls-1" points="31.3 27.34 15.33 18.12 38.9 4.51 54.87 13.73 31.3 27.34"/><g><polygon class="cls-3" points="37.73 10.77 35.98 9.76 35.98 3.75 37.73 4.75 37.73 10.77"/><polygon class="cls-4" points="40.63 9.09 37.73 10.77 37.73 4.75 25.01 12.09 25.01 18.11 22.11 19.78 22.11 11.69 40.63 1 40.63 9.09"/><polygon class="cls-1" points="40.63 1 22.11 11.69 20.37 10.69 38.88 0 40.63 1"/><polygon class="cls-3" points="22.11 19.78 20.37 18.78 20.37 10.69 22.11 11.69 22.11 19.78"/></g><g><polygon class="cls-3" points="41.79 13.11 40.05 12.11 40.05 6.09 41.79 7.1 41.79 13.11"/><polygon class="cls-4" points="44.69 11.44 41.79 13.11 41.79 7.1 29.08 14.43 29.08 20.45 26.18 22.12 26.18 14.03 44.69 3.34 44.69 11.44"/><polygon class="cls-1" points="44.69 3.34 26.18 14.03 24.44 13.03 42.95 2.34 44.69 3.34"/><polygon class="cls-3" points="26.18 22.12 24.44 21.12 24.44 13.03 26.18 14.03 26.18 22.12"/></g><g><polygon class="cls-3" points="45.88 15.51 44.13 14.51 44.13 8.5 45.88 9.5 45.88 15.51"/><polygon class="cls-4" points="48.78 13.84 45.88 15.51 45.88 9.5 33.17 16.84 33.17 22.85 30.27 24.53 30.27 16.44 48.78 5.75 48.78 13.84"/><polygon class="cls-1" points="48.78 5.75 30.27 16.44 28.52 15.43 47.03 4.75 48.78 5.75"/><polygon class="cls-3" points="30.27 24.53 28.52 23.53 28.52 15.43 30.27 16.44 30.27 24.53"/></g><g><path class="cls-3" d="M21.08,28.16l-3.89-2.25-5.44,9.61,3.89,2.25c2.15,1.22,5.11,.05,6.61-2.6,1.5-2.65,.98-5.79-1.17-7.01Z"/><path class="cls-7" d="M18.36,32.92c-1.5,2.65-4.46,3.82-6.61,2.6-2.15-1.22-2.67-4.36-1.17-7.01,1.5-2.65,4.46-3.82,6.61-2.6,2.15,1.22,2.67,4.36,1.17,7.01Z"/><path class="cls-9" d="M18.38,29.61c-.54,.42-1.02,.96-1.4,1.62-.53,.96-.76,1.98-.69,2.93-1.26,.97-2.83,1.23-4.07,.53-1.77-1.01-2.21-3.6-.97-5.8,1.25-2.19,3.69-3.16,5.47-2.15,1,.57,1.57,1.65,1.66,2.87Z"/><path class="cls-8" d="M18.38,29.61c.07,.94-.15,1.97-.69,2.93-.37,.66-.86,1.2-1.4,1.62-.07-.95,.15-1.97,.69-2.93,.38-.66,.86-1.2,1.4-1.62Z"/></g><g><path class="cls-6" d="M17.71,25.59l-2.51-1.43-6.13,10.82,2.51,1.43c2.42,1.37,5.76,.06,7.45-2.93,1.69-2.99,1.1-6.52-1.32-7.89Z"/><path class="cls-5" d="M16.52,32.06c-1.69,2.99-5.03,4.3-7.45,2.93-2.42-1.37-3.01-4.91-1.32-7.89,1.69-2.99,5.03-4.3,7.45-2.93,2.42,1.37,3.01,4.91,1.32,7.89Z"/><path class="cls-10" d="M15.85,31.68c-1.44,2.53-4.26,3.64-6.31,2.48-2.05-1.16-2.55-4.16-1.12-6.69,1.43-2.53,4.26-3.64,6.31-2.48,2.05,1.16,2.55,4.16,1.12,6.69Z"/></g></g></g></svg>