<?xml version="1.0" encoding="UTF-8"?><svg id="Layer_2" xmlns="http://www.w3.org/2000/svg" viewBox="0 0 68.99 85.95"><defs><style>.cls-1{fill:#ff9d26;}.cls-2{fill:#ff8400;}.cls-3{fill:#939598;}.cls-4{fill:#ba6000;}.cls-5{fill:#303033;}.cls-6{fill:#944f00;}.cls-7{fill:#a7a9ac;}.cls-8{fill:#d1d3d4;}.cls-9{fill:#121214;}.cls-10{fill:#0f2034;}.cls-11{fill:#1d374e;}.cls-12{fill:#535359;}.cls-13{fill:#2a4e68;}.cls-14{fill:#603913;}.cls-15{fill:#7a4100;}.cls-16{opacity:.3;}</style></defs><g id="Layer_1-2"><g><path class="cls-16" d="M39.41,77.43l-23.53-13.58,23.53-13.59,23.54,13.59-23.54,13.58Z"/><g><polygon class="cls-3" points="17.43 61.48 61.39 61.48 61.39 63.84 39.41 76.53 17.43 61.48"/><polygon class="cls-7" points="39.41 76.53 17.43 63.84 17.43 61.48 39.41 74.17 39.41 76.53"/><polygon class="cls-8" points="39.41 74.17 17.43 61.48 39.41 48.79 61.39 61.48 39.41 74.17"/></g><polygon class="cls-16" points="39.42 73.01 19.41 61.48 39.41 49.84 59.42 61.48 39.42 73.01"/><g><polygon class="cls-1" points="37.65 35.08 38.69 35.68 38.21 37.81 23.35 60.42 21.56 60.42 37.65 35.08"/><polygon class="cls-4" points="38.69 35.68 39.08 38.19 24.49 59.92 22.61 61.03 38.69 35.68"/></g><g><polygon class="cls-1" points="41.17 35.08 40.12 35.68 40.61 37.81 55.46 60.42 57.26 60.42 41.17 35.08"/><polygon class="cls-4" points="40.12 35.68 39.73 38.19 54.33 59.92 56.21 61.03 40.12 35.68"/></g><g><polygon class="cls-1" points="38.71 33.48 38.43 34.13 24.77 41.83 24.77 40.21 37.58 32.82 38.71 33.48"/><polygon class="cls-4" points="38.95 34.95 25.91 42.48 25.91 40.87 38.71 33.48 38.95 34.95"/></g><g><polygon class="cls-1" points="37.46 19.01 38.51 19.61 38.02 21.74 26.24 40.22 24.45 40.22 37.46 19.01"/><polygon class="cls-4" points="38.51 19.61 38.89 22.12 27.37 39.73 25.5 40.83 38.51 19.61"/></g><g><polygon class="cls-1" points="40.1 33.51 40.38 34.17 54.04 41.86 54.04 40.25 41.23 32.86 40.1 33.51"/><polygon class="cls-2" points="39.86 34.99 52.9 42.52 52.9 40.9 40.1 33.51 39.86 34.99"/></g><g><polygon class="cls-1" points="41.28 19.01 40.23 19.61 40.72 21.74 52.5 40.22 54.29 40.22 41.28 19.01"/><polygon class="cls-2" points="40.23 19.61 39.84 22.12 51.36 39.73 53.24 40.83 40.23 19.61"/></g><polygon class="cls-4" points="28.87 23.95 23.16 61.84 21.6 62.74 20.88 60.78 27.02 20.39 28.87 23.95"/><polygon class="cls-2" points="49.96 23.95 55.66 61.84 57.22 62.74 57.94 60.78 51.8 20.39 49.96 23.95"/><g><polygon class="cls-1" points="53.07 43.1 54.12 43.71 53.63 45.84 41.7 71.01 39.9 71.01 53.07 43.1"/><polygon class="cls-4" points="54.12 43.71 54.51 46.22 42.83 70.52 40.95 71.62 54.12 43.71"/></g><g><polygon class="cls-1" points="25.78 43.11 24.73 43.71 25.21 45.85 37.15 71.02 38.94 71.02 25.78 43.11"/><polygon class="cls-2" points="24.73 43.71 24.34 46.23 36.02 70.52 37.9 71.62 24.73 43.71"/></g><g><polygon class="cls-1" points="53.89 42.24 53.6 42.9 39.95 50.59 39.95 48.98 52.75 41.58 53.89 42.24"/><polygon class="cls-4" points="54.13 43.71 41.09 51.24 41.09 49.63 53.89 42.24 54.13 43.71"/></g><g><polygon class="cls-1" points="50.15 23.79 51.2 24.39 50.71 26.52 41.42 48.99 39.62 48.99 50.15 23.79"/><polygon class="cls-4" points="51.2 24.39 51.59 26.9 42.55 48.49 40.67 49.59 51.2 24.39"/></g><g><polygon class="cls-1" points="24.97 42.24 25.25 42.9 38.91 50.59 38.91 48.98 26.1 41.58 24.97 42.24"/><polygon class="cls-2" points="24.73 43.71 37.77 51.24 37.77 49.63 24.97 42.24 24.73 43.71"/></g><g><polygon class="cls-1" points="28.89 23.79 27.84 24.39 28.32 26.52 37.62 48.99 39.41 48.99 28.89 23.79"/><polygon class="cls-2" points="27.84 24.39 27.45 26.9 36.49 48.49 38.37 49.59 27.84 24.39"/></g><g><polygon class="cls-3" points="25.47 18.8 53.36 18.8 53.36 21.29 39.41 29.34 25.47 18.8"/><polygon class="cls-7" points="39.41 29.34 25.47 21.29 25.47 18.8 39.41 26.85 39.41 29.34"/><polygon class="cls-8" points="39.41 26.85 25.47 18.8 39.41 10.75 53.36 18.8 39.41 26.85"/></g><polygon class="cls-4" points="41.26 30.78 51.52 24.85 57.22 62.74 59.42 61.48 53.36 21.29 39.41 29.34 39.42 73.01 41.32 71.9 41.26 30.78"/><polygon class="cls-2" points="37.57 30.78 27.31 24.85 21.6 62.74 19.41 61.48 25.46 21.29 39.41 29.34 39.41 73.01 37.5 71.9 37.57 30.78"/><g><path class="cls-2" d="M37.72,11.94l6.83,3.97-3.02,5.23-6.84-3.95c-.39-.22-.61-.72-.61-1.41,0-1.36,.96-3.02,2.14-3.7,.59-.34,1.12-.37,1.51-.15Z"/><path class="cls-4" d="M39.44,18.92c0-1.36,.96-3.02,2.14-3.7,.59-.34,1.12-.37,1.5-.15l-1.27-.74c-.39-.22-.92-.19-1.51,.15-1.18,.68-2.14,2.34-2.14,3.7,0,.68,.24,1.16,.63,1.38l1.28,.74h0c-.39-.23-.62-.7-.62-1.38Z"/><path class="cls-4" d="M36.87,17.45c0-1.36,.96-3.02,2.14-3.7,.59-.34,1.12-.37,1.5-.15l-1.27-.74c-.39-.22-.92-.19-1.51,.15-1.18,.68-2.14,2.34-2.14,3.7,0,.68,.24,1.16,.63,1.38l1.31,.74h0c-.38-.22-.66-.7-.66-1.38Z"/><path class="cls-4" d="M43.04,16.06c-1.18,.68-2.14,2.34-2.14,3.7,0,1.36,.96,1.91,2.14,1.23,1.18-.68,2.14-2.34,2.14-3.7,0-1.36-.96-1.91-2.14-1.23Z"/><path class="cls-2" d="M43.72,16.7c.11,.17,.17,.4,.17,.68,0,.9-.63,2-1.42,2.45-.24,.14-.47,.2-.67,.19,.24,.37,.71,.45,1.25,.14,.78-.45,1.41-1.55,1.42-2.45,0-.62-.3-.99-.74-1.01Z"/><path class="cls-6" d="M43.72,16.7h0c-.2-.01-.43,.05-.67,.19-.78,.45-1.42,1.55-1.42,2.45,0,.28,.06,.51,.17,.68h0c.2,.01,.43-.05,.67-.19,.78-.45,1.42-1.55,1.42-2.45,0-.28-.06-.51-.17-.68Z"/></g><polygon class="cls-15" points="13.31 21.26 17.65 20.28 13.7 18.01 13.31 21.26"/><g><g><polygon class="cls-9" points="66.13 21.64 68.58 20.22 68.58 15.47 60.17 13.45 66.13 21.64"/><polygon class="cls-5" points="60.17 18.21 66.13 21.64 66.13 16.89 60.17 13.45 60.17 18.21"/><polygon class="cls-12" points="60.17 13.45 66.13 16.89 68.58 15.47 62.63 12.04 60.17 13.45"/></g><g><polygon class="cls-9" points="64.31 14.85 65.27 14.29 65.27 9.96 63.65 10.14 64.31 14.85"/><polygon class="cls-5" points="63.65 14.48 64.31 14.85 64.31 10.51 63.65 10.14 63.65 14.48"/><polygon class="cls-12" points="63.65 10.14 64.31 10.51 65.27 9.96 64.62 9.58 63.65 10.14"/></g></g><g><polygon class="cls-13" points="68.99 5.66 11.78 18.21 12.96 13.53 65.64 3.72 68.99 5.66"/><polygon class="cls-10" points="67.81 10.34 15.13 20.15 16.31 15.47 68.99 5.66 67.81 10.34"/><polygon class="cls-11" points="15.13 20.15 11.78 18.21 12.96 13.53 16.31 15.47 15.13 20.15"/></g><path class="cls-16" d="M4.06,85.95c-.67,0-1.31-.15-1.79-.44-.56-.33-.89-.81-.89-1.32,0-.52,.32-1,.89-1.32,.98-.56,2.61-.56,3.59,0,.56,.33,.89,.81,.89,1.32,0,.52-.32,1-.89,1.32-.49,.28-1.13,.44-1.8,.44Z"/><g><path class="cls-9" d="M6.25,84.19v-11.17H1.88v11.17c0,.32,.21,.64,.64,.89,.86,.49,2.23,.49,3.09,0,.42-.25,.64-.57,.64-.89Z"/><path class="cls-12" d="M5.61,73.91c-.86,.49-2.24,.49-3.09,0-.85-.49-.85-1.29,0-1.78,.86-.49,2.23-.49,3.09,0,.85,.49,.85,1.29,0,1.78Z"/></g><g><path class="cls-9" d="M5.47,72.96v-2.01H2.65v2.01c0,.21,.14,.42,.41,.58,.55,.32,1.44,.32,2,0,.27-.16,.41-.37,.41-.58Z"/><path class="cls-12" d="M5.06,71.52c-.55,.32-1.44,.32-2,0-.55-.32-.55-.83,0-1.15,.55-.32,1.44-.32,2,0,.55,.32,.55,.83,0,1.15Z"/></g><g><path class="cls-9" d="M4.98,70.91V37.86h-1.84v33.06c0,.14,.09,.27,.27,.38,.36,.21,.94,.21,1.3,0,.18-.11,.27-.24,.27-.38Z"/><path class="cls-12" d="M4.72,38.23c-.36,.21-.94,.21-1.3,0-.36-.21-.36-.54,0-.75,.36-.21,.94-.21,1.3,0,.36,.21,.36,.54,0,.75Z"/></g><g><polygon class="cls-9" points="5.42 40.01 7.33 38.91 7.33 35.21 .79 33.65 5.42 40.01"/><polygon class="cls-5" points=".79 37.35 5.42 40.01 5.42 36.32 .79 33.65 .79 37.35"/><polygon class="cls-12" points=".79 33.65 5.42 36.32 7.33 35.21 2.7 32.55 .79 33.65"/></g><g><polygon class="cls-6" points="12.25 11.33 11 15.08 16.54 14.31 16.54 13.47 12.25 11.33"/><polygon class="cls-14" points="12.71 10.08 16.84 12.27 17.46 11.45 16.22 7.41 13.73 7.49 12.71 10.08"/><polygon class="cls-14" points="10.66 22.02 10.66 24.26 14.35 24.91 15.02 21.54 10.66 22.02"/><polygon class="cls-15" points="13.7 24.3 7.53 20.74 5.51 32.96 9.37 32.83 13.7 25.25 13.7 24.3"/><path class="cls-2" d="M12.25,11.33l3.18-7.97L10.71,.4l-1.1-.4C0,14.29,0,33.7,0,33.7l5.83,3.37,3.11-17.31,3.31-8.41Z"/><polygon class="cls-1" points="15.43 3.37 9.6 0 10.71 .4 16.54 3.77 15.83 3.97 15.43 3.37"/><polygon class="cls-15" points="15.82 13.96 11.81 11.65 12.91 9.76 16.44 11.8 17.14 12.87 16.54 13.73 15.82 13.96"/><path class="cls-4" d="M18.41,14.61l.27-1.08-2.14-9.77-1.11-.4C5.83,17.66,5.83,37.06,5.83,37.06l2.35-.88,9.47-15.9-3.8,.59,1.67-5.83,2.9-.43Zm-4.13,7.66l-.58,2.03-4.67,7.32-1.68,.29s.23-4.32,1.62-8.83l5.31-.82Zm-2.69-7.72c.78-2.63,2.69-6.42,2.69-6.42l1.4-.07,.76,3.75-.62,2.16-4.24,.58Z"/></g></g></g></svg>