<?xml version="1.0" encoding="UTF-8"?><svg id="Layer_2" xmlns="http://www.w3.org/2000/svg" xmlns:xlink="http://www.w3.org/1999/xlink" viewBox="0 0 97.83 101.58"><defs><style>.cls-1{fill:url(#linear-gradient);}.cls-2{fill:#f5f5f5;}.cls-3{fill:#ff9d26;}.cls-4{fill:#fff;}.cls-5{fill:#ffaa42;}.cls-6{fill:#ff3f4a;}.cls-7{fill:#ff8400;}.cls-8{fill:#969696;}.cls-9{fill:#939598;}.cls-10{fill:#8a8a8a;}.cls-11{fill:#ba6000;}.cls-12{fill:#303033;}.cls-13{fill:#ba8d30;}.cls-14{fill:#944f00;}.cls-15{fill:#bcbec0;}.cls-16{fill:#a7a9ac;}.cls-17{fill:#d1d3d4;}.cls-18{fill:#e31b25;}.cls-19{fill:#121214;}.cls-20,.cls-21{fill:#0d0d0d;}.cls-22{fill:#0f2034;}.cls-23{fill:#1d374e;}.cls-24{fill:#454545;}.cls-25{fill:#3e3e42;}.cls-26{fill:#949494;}.cls-27{fill:#535359;}.cls-28{fill:#9c251f;}.cls-29{fill:#808285;}.cls-30{fill:#2a4e68;}.cls-31{fill:#4a4a4a;}.cls-32{fill:#3b3b3b;}.cls-33{fill:#3c2415;}.cls-34{fill:#603913;}.cls-35{fill:url(#linear-gradient-8);}.cls-36{fill:url(#linear-gradient-9);}.cls-37{fill:url(#linear-gradient-3);}.cls-38{fill:url(#linear-gradient-4);}.cls-39{fill:url(#linear-gradient-2);}.cls-40{fill:url(#linear-gradient-6);}.cls-41{fill:url(#linear-gradient-7);}.cls-42{fill:url(#linear-gradient-5);}.cls-43{opacity:.2;}.cls-44,.cls-21{opacity:.3;}.cls-45{fill:url(#linear-gradient-12);}.cls-46{fill:url(#linear-gradient-10);}.cls-47{fill:url(#linear-gradient-11);}</style><linearGradient id="linear-gradient" x1="15.57" y1="45.51" x2="16.5" y2="45.94" gradientTransform="matrix(1, 0, 0, 1, 0, 0)" gradientUnits="userSpaceOnUse"><stop offset="0" stop-color="#858585"/><stop offset="1" stop-color="#636363"/></linearGradient><linearGradient id="linear-gradient-2" x1="15.48" y1="44.84" x2="16.68" y2="45.17" xlink:href="#linear-gradient"/><linearGradient id="linear-gradient-3" x1="16.52" y1="44.42" x2="16.02" y2="44.71" xlink:href="#linear-gradient"/><linearGradient id="linear-gradient-4" x1="13.66" y1="46.68" x2="14.59" y2="47.11" xlink:href="#linear-gradient"/><linearGradient id="linear-gradient-5" x1="13.57" y1="46.01" x2="14.77" y2="46.34" xlink:href="#linear-gradient"/><linearGradient id="linear-gradient-6" x1="14.6" y1="45.59" x2="14.1" y2="45.88" xlink:href="#linear-gradient"/><linearGradient id="linear-gradient-7" x1="77.06" y1="40.15" x2="77.99" y2="40.57" xlink:href="#linear-gradient"/><linearGradient id="linear-gradient-8" x1="76.97" y1="39.48" x2="78.17" y2="39.8" xlink:href="#linear-gradient"/><linearGradient id="linear-gradient-9" x1="78.01" y1="39.05" x2="77.51" y2="39.34" xlink:href="#linear-gradient"/><linearGradient id="linear-gradient-10" x1="75.15" y1="41.32" x2="76.08" y2="41.74" xlink:href="#linear-gradient"/><linearGradient id="linear-gradient-11" x1="75.06" y1="40.65" x2="76.26" y2="40.97" xlink:href="#linear-gradient"/><linearGradient id="linear-gradient-12" x1="76.1" y1="40.22" x2="75.6" y2="40.51" xlink:href="#linear-gradient"/></defs><g id="Layer_1-2"><g><polygon class="cls-44" points="53.24 101.58 8.67 75.84 53.24 50.11 97.83 75.84 53.24 101.58"/><g><polygon class="cls-9" points="42.29 90.34 64.19 90.34 64.19 95.25 53.24 101.58 42.29 90.34"/><polygon class="cls-16" points="53.24 101.58 42.29 95.25 42.29 90.34 53.24 96.67 53.24 101.58"/><polygon class="cls-17" points="53.24 96.67 42.29 90.34 53.24 84.02 64.19 90.34 53.24 96.67"/></g><g><polygon class="cls-22" points="45.36 82.63 61.14 82.63 61.14 90.37 53.25 94.93 45.36 82.63"/><polygon class="cls-23" points="53.25 94.93 45.36 90.37 45.36 82.63 53.25 87.19 53.25 94.93"/><polygon class="cls-30" points="53.25 87.19 45.36 82.63 53.25 78.08 61.14 82.63 53.25 87.19"/></g><g><polygon class="cls-11" points="42.29 77.7 64.19 77.7 64.19 82.61 53.24 88.93 42.29 77.7"/><polygon class="cls-7" points="53.24 88.93 42.29 82.61 42.29 77.7 53.24 84.02 53.24 88.93"/><polygon class="cls-3" points="53.24 84.02 42.29 77.7 53.24 71.38 64.19 77.7 53.24 84.02"/></g><g><polygon class="cls-9" points="75.92 70.93 97.83 70.93 97.83 75.84 86.87 82.16 75.92 70.93"/><polygon class="cls-16" points="86.87 82.16 75.92 75.84 75.92 70.93 86.87 77.25 86.87 82.16"/><polygon class="cls-17" points="86.87 77.25 75.92 70.93 86.87 64.61 97.83 70.93 86.87 77.25"/></g><g><polygon class="cls-22" points="78.99 63.22 94.78 63.22 94.78 70.96 86.88 75.52 78.99 63.22"/><polygon class="cls-23" points="86.88 75.52 78.99 70.96 78.99 63.22 86.88 67.77 86.88 75.52"/><polygon class="cls-30" points="86.88 67.77 78.99 63.22 86.88 58.66 94.78 63.22 86.88 67.77"/></g><g><polygon class="cls-11" points="75.92 58.29 97.83 58.29 97.83 63.19 86.87 69.52 75.92 58.29"/><polygon class="cls-7" points="86.87 69.52 75.92 63.19 75.92 58.29 86.87 64.61 86.87 69.52"/><polygon class="cls-3" points="86.87 64.61 75.92 58.29 86.87 51.96 97.83 58.29 86.87 64.61"/></g><g><polygon class="cls-9" points="8.67 70.93 30.57 70.93 30.57 75.84 19.62 82.16 8.67 70.93"/><polygon class="cls-16" points="19.62 82.16 8.67 75.84 8.67 70.93 19.62 77.25 19.62 82.16"/><polygon class="cls-17" points="19.62 77.25 8.67 70.93 19.62 64.61 30.57 70.93 19.62 77.25"/></g><g><polygon class="cls-22" points="11.74 63.22 27.52 63.22 27.52 70.96 19.62 75.52 11.74 63.22"/><polygon class="cls-23" points="19.62 75.52 11.74 70.96 11.74 63.22 19.62 67.77 19.62 75.52"/><polygon class="cls-30" points="19.62 67.77 11.74 63.22 19.62 58.66 27.52 63.22 19.62 67.77"/></g><g><polygon class="cls-11" points="8.67 58.29 30.57 58.29 30.57 63.19 19.62 69.52 8.67 58.29"/><polygon class="cls-7" points="19.62 69.52 8.67 63.19 8.67 58.29 19.62 64.61 19.62 69.52"/><polygon class="cls-3" points="19.62 64.61 8.67 58.29 19.62 51.96 30.57 58.29 19.62 64.61"/></g><g><polygon class="cls-9" points="8.67 53.51 97.83 53.51 97.83 58.29 53.24 84.02 8.67 53.51"/><polygon class="cls-16" points="53.24 84.02 8.67 58.29 8.67 53.51 53.24 79.25 53.24 84.02"/><polygon class="cls-17" points="53.24 79.25 8.67 53.51 53.24 27.78 97.83 53.51 53.24 79.25"/></g><g><path class="cls-21" d="M56.58,37.03c-.66,0-1.27-.15-1.74-.42-.48-.28-.74-.65-.74-1.06s.26-.78,.74-1.06c.47-.27,1.09-.42,1.74-.42s1.27,.15,1.74,.42c.48,.28,.75,.65,.75,1.06s-.26,.78-.75,1.06c-.47,.27-1.08,.42-1.74,.42Z"/><g><path class="cls-7" d="M58.98,35.56v-.1h-4.79v.1c0,.35,.23,.71,.7,.98,.94,.54,2.45,.54,3.39,0,.47-.27,.7-.63,.7-.98Z"/><path class="cls-3" d="M58.28,36.43c-.94,.54-2.46,.54-3.39,0-.94-.54-.94-1.42,0-1.96,.94-.54,2.45-.54,3.39,0,.94,.54,.94,1.42,0,1.96Z"/></g><path class="cls-15" d="M58.84,35.39v-3.95h-4.51v3.95c0,.33,.22,.66,.66,.92,.88,.51,2.31,.51,3.19,0,.44-.26,.66-.59,.66-.92Z"/><path class="cls-17" d="M58.79,31.17h0l-.61-1.75h-3.21l-.61,1.76c-.14,.41,.06,.86,.62,1.17,.88,.51,2.31,.51,3.19,0,.56-.32,.76-.77,.61-1.19Z"/><path class="cls-4" d="M57.75,30.32c-.64,.37-1.69,.37-2.33,0-.65-.37-.65-.98,0-1.35,.64-.37,1.69-.37,2.33,0,.64,.37,.64,.97,0,1.35Z"/></g><g><path class="cls-21" d="M61.98,40.15c-.66,0-1.27-.15-1.74-.42-.48-.28-.75-.65-.75-1.06s.27-.78,.75-1.06c.47-.27,1.08-.42,1.74-.42s1.27,.15,1.74,.42c.48,.28,.75,.65,.75,1.06,0,.4-.27,.78-.75,1.06-.47,.27-1.08,.42-1.74,.42Z"/><g><path class="cls-7" d="M64.37,38.67v-.1h-4.8v.1c0,.35,.23,.71,.7,.98,.94,.54,2.46,.54,3.39,0,.47-.27,.7-.63,.7-.98Z"/><path class="cls-3" d="M63.67,39.54c-.94,.54-2.45,.54-3.39,0-.94-.54-.94-1.42,0-1.96,.94-.54,2.46-.54,3.39,0,.94,.54,.94,1.42,0,1.96Z"/></g><path class="cls-15" d="M64.23,38.5v-3.95h-4.51v3.95c0,.33,.22,.66,.66,.92,.88,.51,2.31,.51,3.19,0,.44-.26,.66-.59,.66-.92Z"/><path class="cls-17" d="M64.18,34.29h0l-.61-1.75h-3.21l-.61,1.76c-.14,.41,.07,.86,.62,1.17,.88,.51,2.31,.51,3.19,0,.56-.32,.76-.77,.61-1.19Z"/><path class="cls-4" d="M63.14,33.44c-.64,.37-1.69,.37-2.33,0-.64-.37-.64-.98,0-1.35,.65-.37,1.69-.37,2.33,0,.64,.37,.64,.97,0,1.35Z"/></g><g><path class="cls-21" d="M67.24,43.19c-.66,0-1.27-.15-1.74-.42-.48-.28-.75-.65-.75-1.06s.27-.78,.75-1.06c.47-.27,1.08-.42,1.74-.42s1.27,.15,1.74,.42c.48,.28,.75,.65,.75,1.06s-.27,.78-.75,1.06c-.47,.27-1.08,.42-1.74,.42Z"/><g><path class="cls-7" d="M69.64,41.71v-.1h-4.8v.1c0,.35,.23,.71,.7,.98,.94,.54,2.46,.54,3.39,0,.47-.27,.7-.63,.7-.98Z"/><path class="cls-3" d="M68.94,42.59c-.94,.54-2.46,.54-3.39,0-.93-.54-.93-1.42,0-1.96,.94-.54,2.46-.54,3.39,0,.94,.54,.94,1.42,0,1.96Z"/></g><path class="cls-15" d="M69.5,41.55v-3.95h-4.51v3.95c0,.33,.22,.66,.66,.92,.88,.51,2.31,.51,3.19,0,.44-.26,.66-.59,.66-.92Z"/><path class="cls-17" d="M69.45,37.33h0l-.61-1.75h-3.21l-.61,1.76c-.14,.41,.07,.85,.62,1.17,.88,.51,2.31,.51,3.19,0,.56-.32,.76-.77,.61-1.19Z"/><path class="cls-4" d="M68.41,36.48c-.65,.37-1.69,.37-2.33,0-.64-.37-.64-.98,0-1.35,.65-.37,1.69-.37,2.33,0,.64,.37,.64,.97,0,1.35Z"/></g><g><path class="cls-44" d="M41.17,44.74l-6.81-3.92,11.35-6.55,6.81,3.92-11.35,6.55Z"/><g><polygon class="cls-6" points="41.17 40.27 34.98 36.71 45.71 30.52 51.89 34.09 41.17 40.27"/><polygon class="cls-16" points="41.17 44.41 34.98 40.85 34.98 36.71 41.17 40.27 41.17 44.41"/><polygon class="cls-9" points="51.89 38.22 41.17 44.41 41.17 40.27 51.89 34.09 51.89 38.22"/></g><g><polygon class="cls-27" points="41.17 39.5 34.92 35.9 45.71 29.68 51.95 33.27 41.17 39.5"/><polygon class="cls-12" points="50.52 33.19 49.88 33.55 45.76 31.18 36.93 36.29 36.29 35.92 45.76 30.45 50.52 33.19"/><polygon class="cls-25" points="49.88 33.55 41.05 38.66 36.93 36.29 45.76 31.18 49.88 33.55"/><polygon class="cls-12" points="41.17 40.34 34.92 36.74 34.92 35.9 41.17 39.5 41.17 40.34"/><polygon class="cls-19" points="51.95 34.11 41.17 40.34 41.17 39.5 51.95 33.27 51.95 34.11"/></g></g><g><polygon class="cls-44" points="28.85 43.1 37.67 48.19 40.64 46.47 31.83 41.38 28.85 43.1"/><g><polygon class="cls-12" points="36.26 46.77 36.26 45.36 38.36 44.14 36.64 46.99 36.26 46.77"/><polygon class="cls-27" points="36.64 45.57 36.26 45.36 38.36 44.14 38.74 44.36 36.64 45.57"/><polygon class="cls-19" points="36.64 46.99 36.64 45.57 38.74 44.36 38.74 45.77 36.64 46.99"/></g><g><polygon class="cls-12" points="30.31 43.35 30.31 41.93 32.41 40.71 30.68 43.56 30.31 43.35"/><polygon class="cls-27" points="30.68 42.15 30.31 41.93 32.41 40.71 32.79 40.93 30.68 42.15"/><polygon class="cls-19" points="30.68 43.56 30.68 42.15 32.79 40.93 32.79 42.35 30.68 43.56"/></g><g><polygon class="cls-12" points="29.21 41.29 38.03 46.38 40.13 45.17 29.21 40.86 29.21 41.29"/><polygon class="cls-19" points="38.03 45.95 38.03 46.38 40.13 45.17 40.13 44.74 38.03 45.95"/><polygon class="cls-27" points="29.21 40.86 38.03 45.95 40.13 44.74 31.32 39.65 29.21 40.86"/></g><g><path class="cls-18" d="M31.72,36.79c-.62-.36-1.6,.19-2.19,1.21-.59,1.03-.57,2.15,.05,2.5,.62,.36,1.6-.19,2.19-1.21,.59-1.03,.57-2.15-.04-2.5Z"/><path class="cls-7" d="M31.96,36.79l8.31,4.8-2.27,3.93-8.31-4.8c-.29-.17-.47-.53-.47-1.04,0-1.02,.72-2.26,1.6-2.78,.44-.25,.84-.28,1.13-.11Z"/><path class="cls-18" d="M40.28,41.59s.04,.03,.09,.06h.02c.15,.13,.43,.41,.52,.86h0c0,.05,.01,.09,.02,.13,0,.01,0,.03,0,.04,0,0,0,.01,0,.02h0c.04,.48-.1,1.07-.42,1.63-.33,.56-.77,.98-1.2,1.18h-.02l-.03,.03s-.08,.04-.12,.05h0c-.44,.15-.82,.05-1-.03h-.01c-.06-.03-.1-.05-.1-.05-.29-.17-.47-.53-.47-1.04,0-1.02,.72-2.27,1.6-2.78,.45-.26,.85-.28,1.14-.11Z"/><g><g><path class="cls-11" d="M34.17,39.33v-.32h1.8v.32c0,.13-.09,.27-.26,.37-.35,.2-.92,.2-1.27,0-.18-.1-.26-.23-.26-.37Z"/><path class="cls-3" d="M34.43,39.37c.35,.2,.92,.2,1.27,0,.35-.2,.35-.53,0-.73-.35-.2-.92-.2-1.27,0-.35,.2-.35,.53,0,.73Z"/></g><g><path class="cls-11" d="M34.34,38.98v-.06h1.45v.06c0,.11-.07,.21-.21,.3-.29,.16-.74,.16-1.03,0-.14-.08-.21-.19-.21-.3Z"/><path class="cls-3" d="M34.55,39.22c.28,.16,.74,.16,1.03,0,.28-.16,.28-.43,0-.59-.29-.16-.74-.16-1.03,0-.28,.16-.28,.43,0,.59Z"/></g></g><g><path class="cls-11" d="M32.78,42.75s.04-.02,.04-.04v-2.52c0-.45,.28-.97,.62-1.17,.14-.08,.28-.1,.38-.03,.12,.07,.2,.24,.2,.46,0,.02,.02,.03,.04,.03s.04,0,.04-.03c0-.25-.09-.45-.24-.53-.13-.08-.3-.06-.47,.04-.37,.21-.66,.77-.66,1.24v2.52s.02,.04,.04,.04Z"/><path class="cls-11" d="M33.69,43.27s.04-.02,.04-.04v-2.52c0-.45,.28-.97,.62-1.17,.14-.08,.28-.1,.38-.04,.12,.07,.2,.24,.2,.46,0,.02,.02,.03,.04,.03s.04,0,.04-.03c0-.25-.08-.45-.24-.53-.13-.08-.3-.06-.47,.03-.37,.21-.66,.77-.66,1.24v2.52s.02,.04,.04,.04Z"/><path class="cls-11" d="M33.69,40.81s.03,0,.04-.02c.01-.02,0-.04-.02-.06l-.9-.52s-.05,0-.06,.02c-.01,.02,0,.05,.02,.06l.9,.52s.01,0,.02,0Z"/><path class="cls-11" d="M33.69,41.14s.03,0,.04-.02c.01-.02,0-.05-.02-.06l-.9-.52s-.05,0-.06,.02c-.01,.02,0,.05,.02,.06l.9,.52s.01,0,.02,0Z"/><path class="cls-11" d="M33.69,41.47s.03,0,.04-.02c.01-.02,0-.05-.02-.06l-.9-.52s-.05,0-.06,.02c-.01,.02,0,.05,.02,.06l.9,.52s.01,0,.02,0Z"/><path class="cls-11" d="M33.69,41.81s.03,0,.04-.02c.01-.02,0-.05-.02-.06l-.9-.52s-.05,0-.06,.02c-.01,.02,0,.04,.02,.06l.9,.52s.01,0,.02,0Z"/><path class="cls-11" d="M33.69,42.14s.03,0,.04-.02c.01-.02,0-.05-.02-.06l-.9-.52s-.05,0-.06,.01c-.01,.02,0,.05,.02,.06l.9,.52s.01,0,.02,0Z"/><path class="cls-11" d="M33.69,42.47s.03,0,.04-.02c.01-.02,0-.05-.02-.06l-.9-.52s-.05,0-.06,.02c-.01,.02,0,.04,.02,.06l.9,.52s.01,0,.02,0Z"/><path class="cls-11" d="M33.69,42.8s.03,0,.04-.02c.01-.02,0-.04-.02-.06l-.9-.52s-.05,0-.06,.02c-.01,.02,0,.04,.02,.06l.9,.52s.01,0,.02,0Z"/></g></g><g><polygon class="cls-19" points="35.97 44.77 36.26 44.93 36.36 44.74 36.33 44.61 36.26 44.49 35.97 44.32 35.97 44.77"/><polygon class="cls-12" points="36.26 44.93 36.64 44.72 36.26 44.49 36.26 44.93"/></g><g><polygon class="cls-19" points="30.74 41.74 31.03 41.91 31.13 41.72 31.1 41.59 31.03 41.46 30.74 41.29 30.74 41.74"/><polygon class="cls-12" points="31.03 41.91 31.4 41.7 31.03 41.46 31.03 41.91"/></g></g><g><polygon class="cls-44" points="23.73 46.06 32.54 51.15 35.52 49.43 26.71 44.34 23.73 46.06"/><g><polygon class="cls-12" points="31.14 49.73 31.14 48.32 33.24 47.1 31.51 49.95 31.14 49.73"/><polygon class="cls-27" points="31.51 48.53 31.14 48.32 33.24 47.1 33.61 47.32 31.51 48.53"/><polygon class="cls-19" points="31.51 49.95 31.51 48.53 33.61 47.32 33.61 48.73 31.51 49.95"/></g><g><polygon class="cls-12" points="25.18 46.31 25.18 44.89 27.29 43.67 25.56 46.52 25.18 46.31"/><polygon class="cls-27" points="25.56 45.11 25.18 44.89 27.29 43.67 27.66 43.89 25.56 45.11"/><polygon class="cls-19" points="25.56 46.52 25.56 45.11 27.66 43.89 27.66 45.31 25.56 46.52"/></g><g><polygon class="cls-12" points="24.09 44.25 32.9 49.34 35 48.13 24.09 43.82 24.09 44.25"/><polygon class="cls-19" points="32.9 48.91 32.9 49.34 35 48.13 35 47.7 32.9 48.91"/><polygon class="cls-27" points="24.09 43.82 32.9 48.91 35 47.7 26.19 42.61 24.09 43.82"/></g><g><path class="cls-18" d="M26.6,39.75c-.62-.36-1.6,.19-2.19,1.21-.59,1.03-.57,2.15,.04,2.5,.62,.36,1.6-.19,2.19-1.21,.59-1.03,.57-2.15-.04-2.5Z"/><path class="cls-7" d="M26.83,39.74l8.31,4.8-2.27,3.93-8.31-4.8c-.29-.17-.47-.53-.47-1.04,0-1.02,.72-2.26,1.6-2.78,.44-.25,.84-.28,1.13-.11Z"/><path class="cls-18" d="M35.15,44.55s.04,.03,.08,.06h.02c.15,.13,.43,.41,.52,.86h0c0,.05,.01,.09,.02,.13,0,.01,0,.03,0,.04v.02h0c.04,.48-.1,1.07-.42,1.63-.33,.56-.77,.98-1.2,1.18h-.02s-.02,.02-.03,.03c-.04,.02-.08,.04-.12,.05h0c-.44,.15-.81,.05-1-.03h-.01c-.06-.03-.09-.05-.1-.05-.29-.17-.47-.53-.47-1.04,0-1.02,.72-2.27,1.6-2.78,.45-.26,.85-.28,1.14-.11Z"/><g><g><path class="cls-11" d="M29.04,42.29v-.32h1.8v.32c0,.13-.09,.26-.26,.37-.35,.2-.92,.2-1.27,0-.17-.1-.26-.23-.26-.37Z"/><path class="cls-3" d="M29.3,42.33c.35,.2,.92,.2,1.27,0,.35-.2,.35-.53,0-.73-.35-.2-.92-.2-1.27,0-.35,.2-.35,.53,0,.73Z"/></g><g><path class="cls-11" d="M29.21,41.94v-.06h1.45v.06c0,.11-.07,.21-.21,.3-.28,.16-.74,.16-1.02,0-.14-.08-.21-.19-.21-.3Z"/><path class="cls-3" d="M29.43,42.18c.28,.16,.74,.16,1.02,0,.28-.16,.28-.43,0-.59-.28-.16-.74-.16-1.02,0-.28,.16-.28,.43,0,.59Z"/></g></g><g><path class="cls-11" d="M27.66,45.71s.04-.02,.04-.04v-2.52c0-.45,.28-.97,.62-1.17,.14-.08,.28-.1,.38-.03,.12,.07,.19,.24,.19,.46,0,.02,.02,.03,.04,.03s.04,0,.04-.03c0-.25-.09-.45-.24-.53-.13-.08-.3-.06-.47,.04-.37,.21-.66,.77-.66,1.24v2.52s.02,.04,.04,.04Z"/><path class="cls-11" d="M28.56,46.23s.04-.02,.04-.04v-2.52c0-.45,.28-.97,.62-1.17,.14-.08,.28-.1,.39-.04,.12,.07,.2,.24,.2,.46,0,.02,.02,.03,.04,.03,.02,0,.04,0,.04-.03,0-.25-.08-.45-.24-.53-.13-.08-.3-.06-.47,.03-.37,.21-.66,.77-.66,1.24v2.52s.02,.04,.04,.04Z"/><path class="cls-11" d="M28.56,43.77s.03,0,.04-.02c.01-.02,0-.04-.02-.06l-.9-.52s-.05,0-.06,.02c-.01,.02,0,.04,.02,.06l.9,.52s.01,0,.02,0Z"/><path class="cls-11" d="M28.56,44.1s.03,0,.04-.02c.01-.02,0-.05-.02-.06l-.9-.52s-.05,0-.06,.02c-.01,.02,0,.05,.02,.06l.9,.52s.01,0,.02,0Z"/><path class="cls-11" d="M28.56,44.43s.03,0,.04-.02c.01-.02,0-.04-.02-.06l-.9-.52s-.05,0-.06,.01c-.01,.02,0,.05,.02,.06l.9,.52s.01,0,.02,0Z"/><path class="cls-11" d="M28.56,44.77s.03,0,.04-.02c.01-.02,0-.05-.02-.06l-.9-.52s-.05,0-.06,.02c-.01,.02,0,.04,.02,.06l.9,.52s.01,0,.02,0Z"/><path class="cls-11" d="M28.56,45.1s.03,0,.04-.02c.01-.02,0-.05-.02-.06l-.9-.52s-.05,0-.06,.02c-.01,.02,0,.04,.02,.06l.9,.52s.01,0,.02,0Z"/><path class="cls-11" d="M28.56,45.43s.03,0,.04-.02c.01-.02,0-.05-.02-.06l-.9-.52s-.05,0-.06,.02c-.01,.02,0,.04,.02,.06l.9,.52s.01,0,.02,0Z"/><path class="cls-11" d="M28.56,45.76s.03,0,.04-.02c.01-.02,0-.05-.02-.06l-.9-.52s-.05,0-.06,.02c-.01,.02,0,.05,.02,.06l.9,.52s.01,0,.02,0Z"/></g></g><g><polygon class="cls-19" points="30.85 47.73 31.14 47.89 31.24 47.7 31.21 47.57 31.14 47.45 30.85 47.28 30.85 47.73"/><polygon class="cls-12" points="31.14 47.89 31.51 47.68 31.14 47.45 31.14 47.89"/></g><g><polygon class="cls-19" points="25.61 44.7 25.9 44.87 26 44.68 25.97 44.54 25.9 44.42 25.61 44.25 25.61 44.7"/><polygon class="cls-12" points="25.9 44.87 26.27 44.66 25.9 44.42 25.9 44.87"/></g></g><g><polygon class="cls-21" points="19.59 59.31 9.66 53.57 21.27 46.87 31.21 52.6 19.59 59.31"/><g><polygon class="cls-6" points="19.64 53.02 10.5 47.74 21.23 41.55 30.36 46.83 19.64 53.02"/><polygon class="cls-18" points="19.64 58.84 10.5 53.57 10.5 47.74 19.64 53.02 19.64 58.84"/><g><polygon class="cls-20" points="11.6 50.29 11.6 49.43 11.57 49.41 11.57 50.3 14.66 52.09 14.66 52.05 11.6 50.29"/><polygon class="cls-22" points="11.72 50.22 11.72 49.49 11.6 49.42 11.6 50.29 14.67 52.05 14.67 51.92 11.72 50.22"/><polygon class="cls-23" points="11.72 49.49 11.72 50.22 14.67 51.92 14.67 51.19 11.72 49.49"/><polygon class="cls-20" points="12.62 50.01 12.62 50.91 12.65 50.92 12.65 50.03 12.62 50.01"/><polygon class="cls-20" points="13.77 50.67 13.77 51.57 13.8 51.59 13.8 50.69 13.77 50.67"/><path class="cls-24" d="M14.7,51.18l-3.16-1.83v.97l3.16,1.83v-.97Zm-3.13-.87v-.9l1.03,.59v.9l-1.03-.59Zm1.05,.61v-.9l1.12,.65v.9l-1.12-.65Zm1.15,.66v-.9l.89,.52v.9l-.89-.52Z"/><polygon class="cls-28" points="11.54 49.35 11.43 49.41 11.43 50.38 11.54 50.32 11.54 49.35"/><polygon class="cls-28" points="11.54 50.32 11.43 50.38 14.6 52.21 14.7 52.15 11.54 50.32"/><polygon class="cls-18" points="11.56 49.33 11.43 49.41 14.6 51.23 14.73 51.16 11.56 49.33"/><polygon class="cls-18" points="14.73 51.16 14.6 51.23 14.6 52.21 14.73 52.13 14.73 51.16"/></g><g><polygon class="cls-20" points="11.6 52.45 11.6 51.59 11.57 51.57 11.57 52.47 14.66 54.25 14.66 54.22 11.6 52.45"/><polygon class="cls-22" points="11.72 52.38 11.72 51.66 11.6 51.59 11.6 52.45 14.67 54.22 14.67 54.08 11.72 52.38"/><polygon class="cls-23" points="11.72 51.66 11.72 52.38 14.67 54.08 14.67 53.35 11.72 51.66"/><polygon class="cls-20" points="12.62 52.18 12.62 53.07 12.65 53.09 12.65 52.19 12.62 52.18"/><polygon class="cls-20" points="13.77 52.84 13.77 53.74 13.8 53.75 13.8 52.85 13.77 52.84"/><path class="cls-24" d="M14.7,53.34l-3.16-1.83v.97l3.16,1.83v-.97Zm-3.13-.87v-.9l1.03,.59v.9l-1.03-.59Zm1.05,.61v-.9l1.12,.65v.9l-1.12-.65Zm1.15,.66v-.9l.89,.52v.9l-.89-.52Z"/><polygon class="cls-28" points="11.54 51.51 11.43 51.57 11.43 52.54 11.54 52.48 11.54 51.51"/><polygon class="cls-28" points="11.54 52.48 11.43 52.54 14.6 54.37 14.7 54.31 11.54 52.48"/><polygon class="cls-18" points="11.56 51.5 11.43 51.57 14.6 53.4 14.73 53.33 11.56 51.5"/><polygon class="cls-18" points="14.73 53.33 14.6 53.4 14.6 54.37 14.73 54.3 14.73 53.33"/></g><g><polygon class="cls-20" points="16.04 52.85 16.04 51.98 16.01 51.97 16.01 52.87 19.1 54.65 19.1 54.61 16.04 52.85"/><polygon class="cls-22" points="16.16 52.78 16.16 52.05 16.04 51.98 16.04 52.85 19.1 54.61 19.1 54.48 16.16 52.78"/><polygon class="cls-23" points="16.16 52.05 16.16 52.78 19.1 54.48 19.1 53.75 16.16 52.05"/><polygon class="cls-20" points="17.06 52.57 17.06 53.47 17.08 53.49 17.08 52.59 17.06 52.57"/><polygon class="cls-20" points="18.21 53.24 18.21 54.14 18.23 54.15 18.23 53.25 18.21 53.24"/><path class="cls-24" d="M19.14,53.74l-3.17-1.83v.97l3.17,1.83v-.97Zm-3.13-.87v-.9l1.03,.59v.9l-1.03-.59Zm1.05,.61v-.9l1.12,.65v.9l-1.12-.65Zm1.15,.66v-.9l.89,.51v.9l-.89-.52Z"/><polygon class="cls-28" points="15.97 51.91 15.87 51.97 15.87 52.94 15.97 52.88 15.97 51.91"/><polygon class="cls-28" points="15.97 52.88 15.87 52.94 19.03 54.77 19.14 54.71 15.97 52.88"/><polygon class="cls-18" points="16 51.9 15.87 51.97 19.03 53.8 19.16 53.72 16 51.9"/><polygon class="cls-18" points="19.16 53.72 19.03 53.8 19.03 54.77 19.17 54.69 19.16 53.72"/></g><g><polygon class="cls-20" points="16.04 55 16.04 54.14 16.01 54.12 16.01 55.02 19.1 56.8 19.1 56.76 16.04 55"/><polygon class="cls-22" points="16.16 54.93 16.16 54.2 16.04 54.13 16.04 55 19.1 56.76 19.1 56.63 16.16 54.93"/><polygon class="cls-23" points="16.16 54.2 16.16 54.93 19.1 56.63 19.1 55.9 16.16 54.2"/><polygon class="cls-20" points="17.06 54.72 17.06 55.62 17.08 55.64 17.08 54.74 17.06 54.72"/><polygon class="cls-20" points="18.21 55.39 18.21 56.28 18.23 56.3 18.23 55.4 18.21 55.39"/><path class="cls-24" d="M19.14,55.89l-3.17-1.83v.97l3.17,1.83v-.97Zm-3.13-.87v-.9l1.03,.59v.9l-1.03-.59Zm1.05,.61v-.9l1.12,.65v.9l-1.12-.65Zm1.15,.66v-.9l.89,.52v.9l-.89-.52Z"/><polygon class="cls-28" points="15.97 54.06 15.87 54.12 15.87 55.09 15.97 55.03 15.97 54.06"/><polygon class="cls-28" points="15.97 55.03 15.87 55.09 19.03 56.92 19.14 56.86 15.97 55.03"/><polygon class="cls-18" points="16 54.05 15.87 54.12 19.03 55.95 19.16 55.87 16 54.05"/><polygon class="cls-18" points="19.16 55.87 19.03 55.95 19.03 56.92 19.17 56.84 19.16 55.87"/></g><polygon class="cls-28" points="30.36 52.66 19.64 58.84 19.64 53.02 30.36 46.83 30.36 52.66"/><g><polygon class="cls-24" points="24.77 51.94 24.77 51.08 24.8 51.06 24.8 51.96 21.71 53.75 21.71 53.71 24.77 51.94"/><polygon class="cls-23" points="24.65 51.87 24.65 51.15 24.77 51.08 24.77 51.94 21.71 53.71 21.71 53.57 24.65 51.87"/><polygon class="cls-22" points="24.65 51.15 24.65 51.87 21.71 53.57 21.71 52.85 24.65 51.15"/><polygon class="cls-24" points="23.75 51.67 23.75 52.57 23.73 52.58 23.73 51.68 23.75 51.67"/><polygon class="cls-24" points="22.6 52.33 22.6 53.23 22.58 53.24 22.58 52.34 22.6 52.33"/><path class="cls-20" d="M21.67,53.8l3.17-1.83v-.97l-3.17,1.83v.97Zm2.11-1.25v-.9l1.03-.59v.9l-1.03,.59Zm-1.15,.66v-.9l1.12-.65v.9l-1.12,.65Zm-.92,.53v-.9l.89-.52v.9l-.89,.52Z"/><polygon class="cls-18" points="24.84 51 24.94 51.06 24.94 52.04 24.84 51.97 24.84 51"/><polygon class="cls-18" points="24.84 51.97 24.94 52.04 21.78 53.86 21.67 53.8 24.84 51.97"/><polygon class="cls-28" points="24.81 50.99 24.94 51.06 21.78 52.89 21.65 52.82 24.81 50.99"/><polygon class="cls-28" points="21.65 52.82 21.78 52.89 21.78 53.86 21.65 53.79 21.65 52.82"/></g><g><polygon class="cls-24" points="28.59 49.73 28.59 48.87 28.62 48.85 28.62 49.75 25.53 51.53 25.53 51.5 28.59 49.73"/><polygon class="cls-23" points="28.47 49.66 28.47 48.94 28.59 48.87 28.59 49.73 25.53 51.5 25.53 51.36 28.47 49.66"/><polygon class="cls-22" points="28.47 48.94 28.47 49.66 25.53 51.36 25.53 50.64 28.47 48.94"/><polygon class="cls-24" points="27.57 49.46 27.57 50.36 27.55 50.37 27.55 49.47 27.57 49.46"/><polygon class="cls-24" points="26.43 50.12 26.43 51.02 26.4 51.03 26.4 50.13 26.43 50.12"/><path class="cls-20" d="M25.49,51.59l3.16-1.83v-.97l-3.16,1.83v.97Zm2.1-1.25v-.9l1.03-.59v.9l-1.03,.59Zm-1.15,.66v-.9l1.12-.65v.9l-1.12,.65Zm-.92,.53v-.9l.89-.52v.9l-.89,.52Z"/><polygon class="cls-18" points="28.66 48.79 28.76 48.85 28.76 49.82 28.66 49.76 28.66 48.79"/><polygon class="cls-18" points="28.66 49.76 28.76 49.82 25.6 51.65 25.49 51.59 28.66 49.76"/><polygon class="cls-28" points="28.63 48.78 28.76 48.85 25.6 50.68 25.47 50.6 28.63 48.78"/><polygon class="cls-28" points="25.47 50.6 25.6 50.68 25.6 51.65 25.47 51.58 25.47 50.6"/></g></g><g><polygon class="cls-27" points="19.64 52.24 10.44 46.93 21.23 40.71 30.42 46.02 19.64 52.24"/><polygon class="cls-12" points="28.99 45.93 28.35 46.3 21.28 42.21 12.45 47.32 11.81 46.95 21.28 41.48 28.99 45.93"/><polygon class="cls-25" points="28.35 46.3 19.52 51.4 12.45 47.32 21.28 42.21 28.35 46.3"/><polygon class="cls-12" points="19.64 53.08 10.44 47.77 10.44 46.93 19.64 52.24 19.64 53.08"/><polygon class="cls-19" points="30.42 46.85 19.64 53.08 19.64 52.24 30.42 46.02 30.42 46.85"/></g><g><path class="cls-21" d="M16.49,45.87c-.25-.15-.66-.15-.92,0-.25,.15-.25,.38,0,.53,.25,.15,.67,.15,.92,0,.25-.15,.25-.38,0-.53Z"/><path class="cls-1" d="M15.76,45.24h-.17v.85c0,.06,.04,.13,.13,.18,.17,.1,.45,.1,.62,0,.08-.05,.13-.11,.13-.18v-.85h-.17c-.16-.07-.38-.07-.53,0Z"/><path class="cls-43" d="M15.76,45.24h-.17v.03c0,.06,.04,.13,.13,.18,.17,.1,.45,.1,.62,0,.08-.05,.13-.11,.13-.18v-.11l-.17,.09c-.16-.07-.38-.07-.53,0Z"/><path class="cls-39" d="M15.63,44.72h-.25v.3c0,.1,.06,.19,.19,.27,.25,.15,.67,.15,.92,0,.13-.07,.19-.17,.19-.27v-.3h-.25c-.23-.1-.56-.1-.79,0Z"/><path class="cls-10" d="M16.49,44.46c-.25-.15-.66-.15-.92,0-.25,.15-.25,.38,0,.53,.25,.15,.67,.15,.92,0,.25-.15,.25-.38,0-.53Z"/><path class="cls-37" d="M16.37,44.53c-.19-.11-.49-.11-.68,0-.13,.08-.17,.19-.12,.28,.02-.04,.06-.08,.12-.11,.19-.11,.49-.11,.68,0,.06,.03,.09,.07,.12,.11,.05-.09,.01-.2-.12-.28Z"/><path class="cls-31" d="M16.37,44.7c-.19-.11-.49-.11-.68,0-.06,.03-.09,.07-.12,.11,.02,.04,.06,.08,.12,.11,.19,.11,.49,.11,.68,0,.06-.03,.09-.07,.12-.11-.02-.04-.06-.08-.12-.11Z"/><path class="cls-8" d="M16.14,44.88h0l.25-.12-.08-.05-.2,.15h-.02l.16-.17-.11-.03-.08,.18h-.02l.04-.19h-.12l.04,.19h-.02l-.08-.18-.11,.03,.16,.16h-.02l-.2-.14-.08,.05,.26,.11h-.01l-.28-.08-.04,.05s0,.01,.01,.02l.29,.04h-.25s.02,0,.04,.02c.02,0,.03,.02,.05,.02h.16l-.12,.02s.04,.01,.07,.02l.06-.02h.01l-.04,.03s.03,0,.05,0h.19s.03,0,.05,0l-.04-.02h.07s.05,0,.07,0l-.12-.02h.16s.03-.01,.05-.02c.01,0,.03-.02,.04-.02l-.25,.02h0l.29-.06h.01l-.04-.06-.28,.09Z"/></g><g><path class="cls-21" d="M14.58,47.04c-.25-.15-.66-.15-.92,0-.25,.15-.25,.39,0,.53,.25,.15,.67,.15,.92,0,.25-.15,.25-.38,0-.53Z"/><path class="cls-38" d="M13.85,46.41h-.17v.85c0,.06,.04,.13,.13,.18,.17,.1,.45,.1,.62,0,.08-.05,.13-.11,.13-.18v-.85h-.17c-.16-.07-.38-.07-.53,0Z"/><path class="cls-43" d="M13.85,46.41h-.17v.03c0,.06,.04,.13,.13,.18,.17,.1,.45,.1,.62,0,.08-.05,.13-.11,.13-.18v-.11l-.17,.08c-.16-.07-.38-.07-.53,0Z"/><path class="cls-42" d="M13.72,45.89h-.25v.3c0,.1,.06,.19,.19,.27,.25,.15,.67,.15,.92,0,.13-.07,.19-.17,.19-.27v-.3h-.25c-.23-.1-.56-.1-.79,0Z"/><path class="cls-10" d="M14.58,45.63c-.25-.15-.66-.15-.92,0-.25,.15-.25,.39,0,.53,.25,.15,.67,.15,.92,0,.25-.15,.25-.38,0-.53Z"/><path class="cls-40" d="M14.45,45.7c-.19-.11-.49-.11-.68,0-.13,.08-.17,.19-.12,.28,.02-.04,.06-.08,.12-.11,.19-.11,.49-.11,.68,0,.06,.03,.09,.07,.12,.11,.05-.09,.01-.2-.12-.28Z"/><path class="cls-31" d="M14.45,45.87c-.19-.11-.49-.11-.68,0-.06,.03-.09,.07-.12,.11,.02,.04,.06,.08,.12,.11,.19,.11,.49,.11,.68,0,.06-.03,.09-.07,.12-.11-.02-.04-.06-.08-.12-.11Z"/><path class="cls-8" d="M14.23,46.05h0l.25-.12-.08-.05-.2,.15h-.01l.16-.17-.11-.03-.08,.18h-.02l.04-.19h-.12l.04,.19h-.02l-.08-.18-.11,.02,.16,.16h-.02l-.2-.14-.08,.05,.25,.11h0l-.28-.08-.04,.05v.02l.3,.05h-.25s.02,0,.04,.02c.02,0,.03,.02,.05,.02h.16l-.12,.02s.04,.02,.07,.02l.06-.02h0l-.04,.03s.03,0,.05,0h.01s.01,0,.02,0h0s.03,.01,.04,.01h.07s.02,0,.04,0h.02s.03,0,.05,0l-.04-.02h.07s.05,0,.07,0l-.12-.02h.16s.03-.01,.05-.02c.01,0,.03-.02,.04-.03l-.24,.02h0l.29-.06s0,0,.01-.01l-.04-.05-.28,.09Z"/></g><g><polygon class="cls-9" points="15.22 45.36 23.86 45.36 23.86 48.31 19.54 50.81 15.22 45.36"/><polygon class="cls-16" points="19.54 50.81 15.22 48.31 15.22 45.36 19.54 47.86 19.54 50.81"/><polygon class="cls-17" points="19.54 47.86 15.22 45.36 19.54 42.86 23.86 45.36 19.54 47.86"/></g><g><g><g><polygon class="cls-19" points="25.25 31.27 25.25 35.53 27.54 34.19 27.54 29.93 25.25 31.27"/><polygon class="cls-12" points="22.82 29.85 22.82 34.11 25.25 35.53 25.25 31.27 22.82 29.85"/><polygon class="cls-19" points="23.26 30.75 23.26 33.46 24.8 34.36 24.8 31.66 23.26 30.75"/><polygon class="cls-27" points="22.83 29.85 25.25 31.27 27.54 29.93 25.12 28.51 22.83 29.85"/></g><g><polygon class="cls-3" points="17.99 34.33 18.91 34.87 24.55 31.68 23.62 31.15 17.99 34.33"/><polygon class="cls-11" points="18.8 34.93 18.8 37.09 24.55 33.82 24.54 31.68 18.8 34.93"/><polygon class="cls-13" points="17.88 36.54 18.8 37.09 18.8 35.83 17.88 35.28 17.88 36.54"/></g><g><polygon class="cls-9" points="17.6 35.7 17.6 38.86 19.3 37.86 19.3 34.71 17.6 35.7"/><polygon class="cls-16" points="15.8 34.65 15.8 37.81 17.6 38.86 17.6 35.7 15.8 34.65"/><polygon class="cls-15" points="15.8 34.65 17.6 35.7 19.3 34.71 17.5 33.65 15.8 34.65"/></g><g><g><path class="cls-15" d="M2.07,43.39c-.22-.14-.53-.13-.87,.07-.66,.38-1.2,1.31-1.2,2.07,0,.39,.14,.67,.37,.79H.37l.33,.17H.7c-.22-.12-.36-.39-.36-.78,0-.76,.54-1.69,1.2-2.07,.32-.19,.61-.21,.83-.09h0l-.3-.16h0Z"/><path class="cls-9" d="M2.37,43.54c-.21-.11-.51-.09-.83,.09-.66,.38-1.2,1.31-1.2,2.07,0,.39,.14,.66,.36,.78,.22,.12,.51,.1,.84-.09,.66-.38,1.2-1.31,1.2-2.07,0-.39-.14-.66-.37-.78Z"/><path class="cls-32" d="M1.68,44.65c-.18,.1-.32,.35-.32,.55,0,.1,.04,.17,.09,.21,.06,.03,.14,.03,.22-.02,.17-.1,.32-.35,.32-.55,0-.11-.04-.18-.1-.21-.06-.03-.13-.02-.22,.02Z"/></g><polygon class="cls-5" points=".91 45.1 1.83 45.65 3.13 44 2.21 43.46 .91 45.1"/><polygon class="cls-3" points="2.21 43.46 3.13 44 17.15 35.9 16.23 35.37 2.21 43.46"/><polygon class="cls-11" points="3.13 44 1.83 45.65 1.83 46.92 17.15 38.04 17.15 35.9 3.13 44"/><polygon class="cls-7" points=".91 46.36 1.83 46.92 1.83 45.65 .91 45.1 .91 46.36"/><polygon class="cls-12" points="12.97 40.47 14.36 39.66 15.35 36.95 13.97 37.74 12.97 40.47"/></g><g><g><path class="cls-15" d="M2.54,54.03l-.08-.05-.18,.1c-.11,.06-.11,.21-.11,.21,0,.14-.1,.31-.22,.38-.12,.07-.22,.01-.22-.12s.1-.31,.22-.38l.11-.18v-.59l-.22,.12v.49c-.18,.16-.32,.43-.32,.66,0,.27,.19,.38,.43,.25,.23-.14,.42-.47,.42-.74v-.02l.17-.13Z"/><path class="cls-9" d="M2.36,54.14c-.11,.06-.11,.21-.11,.21,0,.14-.1,.31-.22,.38-.12,.07-.22,.01-.22-.12s.1-.31,.22-.38l.11-.18v-.59l-.22,.12v.49c-.18,.16-.32,.43-.32,.66,0,.27,.19,.38,.43,.25,.23-.14,.43-.47,.43-.74,0,0,0-.13,.08-.2l-.18,.1Z"/></g><g><polygon class="cls-7" points="1.97 52.57 2.08 53.78 1.56 53.48 1.3 53.1 1.3 52.27 1.84 52.45 1.97 52.57"/><polygon class="cls-11" points="2.71 52.89 2.46 53.56 2.08 53.78 1.82 53.41 1.82 52.57 2.71 52.06 2.71 52.89"/><polygon class="cls-3" points="1.82 52.57 1.3 52.27 2.18 51.76 2.71 52.06 1.82 52.57"/></g></g><g><path class="cls-19" d="M2.16,52.11v-5.76h-.32v5.76s.02,.05,.05,.07c.06,.04,.16,.04,.23,0,.03-.02,.05-.04,.05-.07Z"/><path class="cls-27" d="M2.12,46.42c-.06,.04-.16,.04-.23,0-.06-.04-.06-.1,0-.13,.06-.04,.16-.04,.23,0,.06,.04,.06,.09,0,.13Z"/></g><g><path class="cls-15" d="M3.36,44.11c-.22-.14-.53-.13-.87,.07-.66,.38-1.2,1.31-1.2,2.07,0,.39,.14,.67,.37,.79h0l.33,.17h0c-.22-.12-.36-.39-.36-.78,0-.76,.54-1.69,1.2-2.07,.32-.19,.61-.21,.83-.09h0l-.3-.16h0Z"/><path class="cls-9" d="M3.66,44.26c-.22-.11-.51-.09-.83,.09-.66,.38-1.2,1.31-1.2,2.07,0,.39,.14,.65,.36,.78,.22,.12,.51,.1,.84-.09,.66-.38,1.2-1.31,1.2-2.07,0-.39-.14-.66-.37-.78Z"/><path class="cls-27" d="M2.94,45.44c-.17,.1-.32,.35-.32,.55,0,.1,.04,.17,.09,.21,.06,.03,.13,.03,.22-.02,.18-.1,.32-.35,.32-.55,0-.1-.04-.18-.1-.21-.06-.03-.13-.02-.22,.03Z"/></g></g><g><g><polygon class="cls-26" points="17.3 38.52 18.34 39.12 19.39 38.52 18.34 37.92 17.3 38.52"/><polygon class="cls-16" points="17.3 45.38 18.34 45.98 18.34 39.12 17.3 38.52 17.3 45.38"/><polygon class="cls-9" points="18.34 45.98 19.39 45.37 19.39 38.52 18.34 39.12 18.34 45.98"/></g><polygon class="cls-11" points="18.97 37.53 18.97 40.69 22.08 38.89 22.08 35.73 18.97 37.53"/><g><polygon class="cls-34" points="19.71 37.44 19.71 39.09 21.33 38.15 21.33 36.5 19.71 37.44"/><polygon class="cls-33" points="21.11 38.04 19.85 38.77 19.85 38.87 21.2 38.09 21.2 36.72 21.11 36.77 21.11 38.04"/><polygon class="cls-30" points="19.85 38.77 21.11 38.04 21.11 36.77 19.85 37.5 19.85 38.77"/></g><polygon class="cls-7" points="16.88 36.32 16.88 39.48 18.97 40.69 18.97 37.53 16.88 36.32"/><polygon class="cls-3" points="16.88 36.32 18.97 37.53 22.08 35.73 19.99 34.52 16.88 36.32"/></g></g></g><g><g><polygon class="cls-21" points="80.01 62.67 66.11 54.65 81.86 45.56 95.76 53.58 80.01 62.67"/><g><polygon class="cls-3" points="80.06 56.38 66.96 48.82 81.81 40.24 94.91 47.81 80.06 56.38"/><polygon class="cls-18" points="80.06 62.21 66.96 54.65 66.96 48.82 80.06 56.38 80.06 62.21"/><g><polygon class="cls-20" points="67.59 51.09 67.59 50.23 67.55 50.21 67.55 51.11 70.65 52.89 70.65 52.86 67.59 51.09"/><polygon class="cls-22" points="67.71 51.02 67.71 50.3 67.59 50.23 67.59 51.09 70.65 52.86 70.65 52.72 67.71 51.02"/><polygon class="cls-23" points="67.71 50.3 67.71 51.02 70.65 52.72 70.65 52 67.71 50.3"/><polygon class="cls-20" points="68.61 50.82 68.61 51.72 68.63 51.73 68.63 50.83 68.61 50.82"/><polygon class="cls-20" points="69.75 51.48 69.75 52.38 69.78 52.39 69.78 51.49 69.75 51.48"/><path class="cls-24" d="M70.69,51.98l-3.17-1.83v.97l3.17,1.83v-.97Zm-3.13-.87v-.9l1.03,.59v.9l-1.03-.59Zm1.05,.61v-.9l1.12,.65v.9l-1.12-.65Zm1.15,.66v-.9l.89,.52v.9l-.89-.52Z"/><polygon class="cls-28" points="67.52 50.15 67.42 50.21 67.42 51.18 67.52 51.12 67.52 50.15"/><polygon class="cls-28" points="67.52 51.12 67.42 51.18 70.58 53.01 70.69 52.95 67.52 51.12"/><polygon class="cls-18" points="67.55 50.14 67.42 50.21 70.58 52.04 70.71 51.97 67.55 50.14"/><polygon class="cls-18" points="70.71 51.97 70.58 52.04 70.58 53.01 70.71 52.94 70.71 51.97"/></g><g><polygon class="cls-20" points="72.02 53.65 72.02 52.79 71.99 52.77 71.99 53.67 75.08 55.46 75.08 55.42 72.02 53.65"/><polygon class="cls-22" points="72.14 53.59 72.14 52.86 72.02 52.79 72.02 53.65 75.08 55.42 75.08 55.28 72.14 53.59"/><polygon class="cls-23" points="72.14 52.86 72.14 53.59 75.08 55.28 75.08 54.56 72.14 52.86"/><polygon class="cls-20" points="73.04 53.38 73.04 54.28 73.07 54.29 73.07 53.39 73.04 53.38"/><polygon class="cls-20" points="74.19 54.04 74.19 54.94 74.21 54.95 74.21 54.06 74.19 54.04"/><path class="cls-24" d="M75.12,54.54l-3.16-1.83v.97l3.16,1.83v-.97Zm-3.13-.87v-.9l1.03,.59v.9l-1.03-.59Zm1.05,.61v-.9l1.12,.65v.9l-1.12-.65Zm1.15,.66v-.9l.89,.52v.9l-.89-.52Z"/><polygon class="cls-28" points="71.96 52.72 71.85 52.77 71.85 53.75 71.96 53.69 71.96 52.72"/><polygon class="cls-28" points="71.96 53.69 71.85 53.75 75.02 55.57 75.12 55.51 71.96 53.69"/><polygon class="cls-18" points="71.98 52.7 71.85 52.77 75.02 54.6 75.15 54.53 71.98 52.7"/><polygon class="cls-18" points="75.15 54.53 75.02 54.6 75.02 55.57 75.15 55.5 75.15 54.53"/></g><g><polygon class="cls-20" points="76.46 56.21 76.46 55.35 76.43 55.33 76.43 56.23 79.52 58.02 79.52 57.98 76.46 56.21"/><polygon class="cls-22" points="76.58 56.15 76.58 55.42 76.46 55.35 76.46 56.21 79.52 57.98 79.52 57.84 76.58 56.15"/><polygon class="cls-23" points="76.58 55.42 76.58 56.15 79.52 57.84 79.52 57.12 76.58 55.42"/><polygon class="cls-20" points="77.48 55.94 77.48 56.84 77.5 56.85 77.5 55.95 77.48 55.94"/><polygon class="cls-20" points="78.63 56.6 78.63 57.5 78.65 57.52 78.65 56.62 78.63 56.6"/><path class="cls-24" d="M79.56,57.1l-3.16-1.83v.97l3.16,1.83v-.97Zm-3.13-.87v-.9l1.03,.59v.9l-1.03-.59Zm1.05,.61v-.9l1.12,.65v.9l-1.12-.65Zm1.15,.66v-.9l.89,.52v.9l-.89-.52Z"/><polygon class="cls-28" points="76.4 55.28 76.29 55.34 76.29 56.31 76.4 56.25 76.4 55.28"/><polygon class="cls-28" points="76.4 56.25 76.29 56.31 79.46 58.13 79.56 58.07 76.4 56.25"/><polygon class="cls-18" points="76.42 55.26 76.29 55.34 79.45 57.16 79.58 57.09 76.42 55.26"/><polygon class="cls-18" points="79.58 57.09 79.45 57.16 79.46 58.13 79.58 58.06 79.58 57.09"/></g><g><polygon class="cls-20" points="67.59 53.24 67.59 52.38 67.55 52.36 67.55 53.26 70.65 55.04 70.65 55.01 67.59 53.24"/><polygon class="cls-22" points="67.71 53.17 67.71 52.45 67.59 52.38 67.59 53.24 70.65 55.01 70.65 54.87 67.71 53.17"/><polygon class="cls-23" points="67.71 52.45 67.71 53.17 70.65 54.87 70.65 54.15 67.71 52.45"/><polygon class="cls-20" points="68.61 52.97 68.61 53.87 68.63 53.88 68.63 52.98 68.61 52.97"/><polygon class="cls-20" points="69.75 53.63 69.75 54.53 69.78 54.54 69.78 53.64 69.75 53.63"/><path class="cls-24" d="M70.69,54.13l-3.17-1.83v.97l3.17,1.83v-.97Zm-3.13-.87v-.9l1.03,.59v.9l-1.03-.59Zm1.05,.61v-.9l1.12,.65v.9l-1.12-.65Zm1.15,.66v-.9l.89,.52v.9l-.89-.52Z"/><polygon class="cls-28" points="67.52 52.3 67.42 52.36 67.42 53.33 67.52 53.27 67.52 52.3"/><polygon class="cls-28" points="67.52 53.27 67.42 53.33 70.58 55.16 70.69 55.1 67.52 53.27"/><polygon class="cls-18" points="67.55 52.29 67.42 52.36 70.58 54.19 70.71 54.12 67.55 52.29"/><polygon class="cls-18" points="70.71 54.12 70.58 54.19 70.58 55.16 70.71 55.09 70.71 54.12"/></g><g><polygon class="cls-20" points="76.46 58.36 76.46 57.5 76.43 57.48 76.43 58.38 79.52 60.17 79.52 60.13 76.46 58.36"/><polygon class="cls-22" points="76.58 58.3 76.58 57.57 76.46 57.5 76.46 58.36 79.52 60.13 79.52 59.99 76.58 58.3"/><polygon class="cls-23" points="76.58 57.57 76.58 58.3 79.52 59.99 79.52 59.27 76.58 57.57"/><polygon class="cls-20" points="77.48 58.09 77.48 58.99 77.5 59 77.5 58.1 77.48 58.09"/><polygon class="cls-20" points="78.63 58.75 78.63 59.65 78.65 59.67 78.65 58.77 78.63 58.75"/><path class="cls-24" d="M79.56,59.25l-3.16-1.83v.97l3.16,1.83v-.97Zm-3.13-.87v-.9l1.03,.59v.9l-1.03-.59Zm1.05,.61v-.9l1.12,.65v.9l-1.12-.65Zm1.15,.66v-.9l.89,.52v.9l-.89-.52Z"/><polygon class="cls-28" points="76.4 57.43 76.29 57.49 76.29 58.46 76.4 58.4 76.4 57.43"/><polygon class="cls-28" points="76.4 58.4 76.29 58.46 79.46 60.28 79.56 60.22 76.4 58.4"/><polygon class="cls-18" points="76.42 57.41 76.29 57.49 79.45 59.31 79.58 59.24 76.42 57.41"/><polygon class="cls-18" points="79.58 59.24 79.45 59.31 79.46 60.28 79.58 60.21 79.58 59.24"/></g><polygon class="cls-28" points="94.91 53.64 80.06 62.21 80.06 56.38 94.91 47.81 94.91 53.64"/><g><polygon class="cls-24" points="85.19 55.31 85.19 54.45 85.22 54.43 85.22 55.33 82.13 57.11 82.13 57.07 85.19 55.31"/><polygon class="cls-23" points="85.07 55.24 85.07 54.51 85.19 54.45 85.19 55.31 82.13 57.07 82.13 56.94 85.07 55.24"/><polygon class="cls-22" points="85.07 54.51 85.07 55.24 82.13 56.94 82.13 56.21 85.07 54.51"/><polygon class="cls-24" points="84.17 55.03 84.17 55.93 84.15 55.95 84.15 55.05 84.17 55.03"/><polygon class="cls-24" points="83.02 55.7 83.02 56.6 83 56.61 83 55.71 83.02 55.7"/><path class="cls-20" d="M82.09,57.17l3.17-1.83v-.97l-3.17,1.83v.97Zm2.11-1.25v-.9l1.03-.59v.9l-1.03,.59Zm-1.15,.66v-.9l1.12-.65v.9l-1.12,.65Zm-.92,.53v-.9l.89-.52v.9l-.89,.52Z"/><polygon class="cls-18" points="85.26 54.37 85.36 54.43 85.36 55.4 85.26 55.34 85.26 54.37"/><polygon class="cls-18" points="85.26 55.34 85.36 55.4 82.2 57.23 82.09 57.17 85.26 55.34"/><polygon class="cls-28" points="85.23 54.36 85.36 54.43 82.2 56.26 82.07 56.18 85.23 54.36"/><polygon class="cls-28" points="82.07 56.18 82.2 56.26 82.2 57.23 82.07 57.15 82.07 56.18"/></g><g><polygon class="cls-24" points="85.19 57.47 85.19 56.61 85.22 56.59 85.22 57.49 82.13 59.28 82.13 59.24 85.19 57.47"/><polygon class="cls-23" points="85.07 57.41 85.07 56.68 85.19 56.61 85.19 57.47 82.13 59.24 82.13 59.11 85.07 57.41"/><polygon class="cls-22" points="85.07 56.68 85.07 57.41 82.13 59.11 82.13 58.38 85.07 56.68"/><polygon class="cls-24" points="84.17 57.2 84.17 58.1 84.15 58.11 84.15 57.21 84.17 57.2"/><polygon class="cls-24" points="83.02 57.86 83.02 58.76 83 58.78 83 57.88 83.02 57.86"/><path class="cls-20" d="M82.09,59.33l3.17-1.83v-.97l-3.17,1.83v.97Zm2.11-1.25v-.9l1.03-.59v.9l-1.03,.59Zm-1.15,.66v-.9l1.12-.65v.9l-1.12,.65Zm-.92,.53v-.9l.89-.52v.9l-.89,.52Z"/><polygon class="cls-18" points="85.26 56.54 85.36 56.6 85.36 57.57 85.26 57.51 85.26 56.54"/><polygon class="cls-18" points="85.26 57.51 85.36 57.57 82.2 59.4 82.09 59.33 85.26 57.51"/><polygon class="cls-28" points="85.23 56.52 85.36 56.6 82.2 58.42 82.07 58.35 85.23 56.52"/><polygon class="cls-28" points="82.07 58.35 82.2 58.42 82.2 59.4 82.07 59.32 82.07 58.35"/></g><g><polygon class="cls-24" points="89.01 53.1 89.01 52.24 89.04 52.22 89.04 53.11 85.95 54.9 85.95 54.86 89.01 53.1"/><polygon class="cls-23" points="88.89 53.03 88.89 52.3 89.01 52.23 89.01 53.1 85.95 54.86 85.95 54.73 88.89 53.03"/><polygon class="cls-22" points="88.89 52.3 88.89 53.03 85.95 54.73 85.95 54 88.89 52.3"/><polygon class="cls-24" points="87.99 52.82 87.99 53.72 87.97 53.74 87.97 52.84 87.99 52.82"/><polygon class="cls-24" points="86.85 53.49 86.85 54.39 86.82 54.4 86.82 53.5 86.85 53.49"/><path class="cls-20" d="M85.91,54.96l3.17-1.83v-.97l-3.17,1.83v.97Zm2.11-1.25v-.9l1.03-.59v.9l-1.03,.59Zm-1.15,.66v-.9l1.12-.65v.9l-1.12,.65Zm-.92,.53v-.9l.89-.52v.9l-.89,.52Z"/><polygon class="cls-18" points="89.08 52.16 89.18 52.22 89.18 53.19 89.08 53.13 89.08 52.16"/><polygon class="cls-18" points="89.08 53.13 89.18 53.19 86.02 55.02 85.91 54.96 89.08 53.13"/><polygon class="cls-28" points="89.05 52.15 89.18 52.22 86.02 54.05 85.89 53.97 89.05 52.15"/><polygon class="cls-28" points="85.89 53.97 86.02 54.05 86.02 55.02 85.89 54.94 85.89 53.97"/></g><g><polygon class="cls-24" points="89.01 55.26 89.01 54.4 89.04 54.38 89.04 55.28 85.95 57.07 85.95 57.03 89.01 55.26"/><polygon class="cls-23" points="88.89 55.2 88.89 54.47 89.01 54.4 89.01 55.26 85.95 57.03 85.95 56.89 88.89 55.2"/><polygon class="cls-22" points="88.89 54.47 88.89 55.2 85.95 56.89 85.95 56.17 88.89 54.47"/><polygon class="cls-24" points="87.99 54.99 87.99 55.89 87.97 55.9 87.97 55 87.99 54.99"/><polygon class="cls-24" points="86.85 55.65 86.85 56.55 86.82 56.56 86.82 55.67 86.85 55.65"/><path class="cls-20" d="M85.91,57.12l3.17-1.83v-.97l-3.17,1.83v.97Zm2.11-1.25v-.9l1.03-.59v.9l-1.03,.59Zm-1.15,.66v-.9l1.12-.65v.9l-1.12,.65Zm-.92,.53v-.9l.89-.52v.9l-.89,.52Z"/><polygon class="cls-18" points="89.08 54.33 89.18 54.39 89.18 55.36 89.08 55.3 89.08 54.33"/><polygon class="cls-18" points="89.08 55.3 89.18 55.36 86.02 57.18 85.91 57.12 89.08 55.3"/><polygon class="cls-28" points="89.05 54.31 89.18 54.39 86.02 56.21 85.89 56.14 89.05 54.31"/><polygon class="cls-28" points="85.89 56.14 86.02 56.21 86.02 57.18 85.89 57.11 85.89 56.14"/></g><g><polygon class="cls-24" points="92.82 50.9 92.82 50.04 92.85 50.02 92.85 50.92 89.76 52.7 89.76 52.66 92.82 50.9"/><polygon class="cls-23" points="92.7 50.83 92.7 50.11 92.82 50.04 92.82 50.9 89.76 52.66 89.76 52.53 92.7 50.83"/><polygon class="cls-22" points="92.7 50.11 92.7 50.83 89.76 52.53 89.76 51.8 92.7 50.11"/><polygon class="cls-24" points="91.8 50.62 91.8 51.52 91.78 51.54 91.78 50.64 91.8 50.62"/><polygon class="cls-24" points="90.65 51.29 90.65 52.19 90.63 52.2 90.63 51.3 90.65 51.29"/><path class="cls-20" d="M89.72,52.76l3.17-1.83v-.97l-3.17,1.83v.97Zm2.11-1.25v-.9l1.03-.59v.9l-1.03,.59Zm-1.15,.66v-.9l1.12-.65v.9l-1.12,.65Zm-.92,.53v-.9l.89-.52v.9l-.89,.52Z"/><polygon class="cls-18" points="92.89 49.96 92.99 50.02 92.99 50.99 92.89 50.93 92.89 49.96"/><polygon class="cls-18" points="92.89 50.93 92.99 50.99 89.83 52.82 89.72 52.76 92.89 50.93"/><polygon class="cls-28" points="92.86 49.95 92.99 50.02 89.83 51.85 89.7 51.77 92.86 49.95"/><polygon class="cls-28" points="89.7 51.77 89.83 51.85 89.83 52.82 89.7 52.74 89.7 51.77"/></g><g><polygon class="cls-24" points="92.82 53.06 92.82 52.2 92.85 52.18 92.85 53.08 89.76 54.87 89.76 54.83 92.82 53.06"/><polygon class="cls-23" points="92.7 53 92.7 52.27 92.82 52.2 92.82 53.06 89.76 54.83 89.76 54.69 92.7 53"/><polygon class="cls-22" points="92.7 52.27 92.7 53 89.76 54.69 89.76 53.97 92.7 52.27"/><polygon class="cls-24" points="91.8 52.79 91.8 53.69 91.78 53.7 91.78 52.8 91.8 52.79"/><polygon class="cls-24" points="90.65 53.45 90.65 54.35 90.63 54.37 90.63 53.47 90.65 53.45"/><path class="cls-20" d="M89.72,54.92l3.17-1.83v-.97l-3.17,1.83v.97Zm2.11-1.25v-.9l1.03-.59v.9l-1.03,.59Zm-1.15,.66v-.9l1.12-.65v.9l-1.12,.65Zm-.92,.53v-.9l.89-.52v.9l-.89,.52Z"/><polygon class="cls-18" points="92.89 52.13 92.99 52.19 92.99 53.16 92.89 53.1 92.89 52.13"/><polygon class="cls-18" points="92.89 53.1 92.99 53.16 89.83 54.99 89.72 54.92 92.89 53.1"/><polygon class="cls-28" points="92.86 52.11 92.99 52.19 89.83 54.01 89.7 53.94 92.86 52.11"/><polygon class="cls-28" points="89.7 53.94 89.83 54.01 89.83 54.99 89.7 54.91 89.7 53.94"/></g></g><g><polygon class="cls-27" points="80.06 55.61 66.9 48.01 81.81 39.4 94.97 47 80.06 55.61"/><polygon class="cls-12" points="93.54 46.91 92.9 47.28 81.86 40.9 68.9 48.39 68.26 48.03 81.86 40.17 93.54 46.91"/><polygon class="cls-25" points="92.9 47.28 79.94 54.77 68.9 48.39 81.86 40.9 92.9 47.28"/><polygon class="cls-12" points="80.06 56.44 66.9 48.85 66.9 48.01 80.06 55.61 80.06 56.44"/><polygon class="cls-19" points="94.97 47.83 80.06 56.44 80.06 55.61 94.97 47 94.97 47.83"/></g></g><g><polygon class="cls-21" points="81.08 53.94 71.15 48.21 82.77 41.5 92.7 47.23 81.08 53.94"/><g><polygon class="cls-6" points="81.13 47.65 72 42.38 82.72 36.19 91.85 41.46 81.13 47.65"/><polygon class="cls-18" points="81.13 53.48 72 48.21 72 42.38 81.13 47.65 81.13 53.48"/><g><polygon class="cls-20" points="73.1 44.92 73.1 44.06 73.06 44.04 73.06 44.94 76.16 46.73 76.16 46.69 73.1 44.92"/><polygon class="cls-22" points="73.22 44.85 73.22 44.13 73.1 44.06 73.1 44.92 76.16 46.69 76.16 46.55 73.22 44.85"/><polygon class="cls-23" points="73.22 44.13 73.22 44.85 76.16 46.55 76.16 45.83 73.22 44.13"/><polygon class="cls-20" points="74.12 44.65 74.12 45.55 74.14 45.56 74.14 44.66 74.12 44.65"/><polygon class="cls-20" points="75.26 45.31 75.26 46.21 75.29 46.22 75.29 45.32 75.26 45.31"/><path class="cls-24" d="M76.2,45.81l-3.16-1.83v.97l3.16,1.83v-.97Zm-3.13-.87v-.9l1.03,.59v.9l-1.03-.59Zm1.05,.61v-.9l1.12,.65v.9l-1.12-.65Zm1.15,.66v-.9l.89,.52v.9l-.89-.52Z"/><polygon class="cls-28" points="73.03 43.98 72.93 44.04 72.93 45.01 73.03 44.95 73.03 43.98"/><polygon class="cls-28" points="73.03 44.95 72.93 45.01 76.09 46.84 76.2 46.78 73.03 44.95"/><polygon class="cls-18" points="73.06 43.97 72.93 44.04 76.09 45.87 76.22 45.8 73.06 43.97"/><polygon class="cls-18" points="76.22 45.8 76.09 45.87 76.09 46.84 76.22 46.77 76.22 45.8"/></g><g><polygon class="cls-20" points="77.54 47.48 77.54 46.62 77.5 46.6 77.5 47.5 80.59 49.29 80.59 49.25 77.54 47.48"/><polygon class="cls-22" points="77.65 47.42 77.65 46.69 77.54 46.62 77.54 47.48 80.59 49.25 80.59 49.11 77.65 47.42"/><polygon class="cls-23" points="77.65 46.69 77.65 47.42 80.59 49.11 80.59 48.39 77.65 46.69"/><polygon class="cls-20" points="78.55 47.21 78.55 48.11 78.58 48.12 78.58 47.22 78.55 47.21"/><polygon class="cls-20" points="79.7 47.87 79.7 48.77 79.73 48.78 79.73 47.89 79.7 47.87"/><path class="cls-24" d="M80.63,48.37l-3.16-1.83v.97l3.16,1.83v-.97Zm-3.13-.87v-.9l1.03,.59v.9l-1.03-.59Zm1.05,.61v-.9l1.12,.65v.9l-1.12-.65Zm1.15,.66v-.9l.89,.51v.9l-.89-.52Z"/><polygon class="cls-28" points="77.47 46.54 77.36 46.61 77.36 47.58 77.47 47.52 77.47 46.54"/><polygon class="cls-28" points="77.47 47.52 77.36 47.58 80.53 49.4 80.63 49.34 77.47 47.52"/><polygon class="cls-18" points="77.49 46.53 77.36 46.61 80.53 48.43 80.66 48.36 77.49 46.53"/><polygon class="cls-18" points="80.66 48.36 80.53 48.43 80.53 49.4 80.66 49.33 80.66 48.36"/></g><g><polygon class="cls-20" points="77.54 49.63 77.54 48.77 77.5 48.75 77.5 49.65 80.59 51.44 80.59 51.4 77.54 49.63"/><polygon class="cls-22" points="77.65 49.56 77.65 48.84 77.54 48.77 77.54 49.63 80.59 51.4 80.59 51.26 77.65 49.56"/><polygon class="cls-23" points="77.65 48.84 77.65 49.56 80.59 51.26 80.59 50.54 77.65 48.84"/><polygon class="cls-20" points="78.55 49.36 78.55 50.26 78.58 50.27 78.58 49.37 78.55 49.36"/><polygon class="cls-20" points="79.7 50.02 79.7 50.92 79.73 50.93 79.73 50.04 79.7 50.02"/><path class="cls-24" d="M80.63,50.52l-3.16-1.83v.97l3.16,1.83v-.97Zm-3.13-.87v-.9l1.03,.59v.9l-1.03-.59Zm1.05,.61v-.9l1.12,.65v.9l-1.12-.65Zm1.15,.66v-.9l.89,.52v.9l-.89-.52Z"/><polygon class="cls-28" points="77.47 48.69 77.36 48.75 77.36 49.73 77.47 49.66 77.47 48.69"/><polygon class="cls-28" points="77.47 49.66 77.36 49.73 80.53 51.55 80.63 51.49 77.47 49.66"/><polygon class="cls-18" points="77.49 48.68 77.36 48.75 80.53 50.58 80.66 50.51 77.49 48.68"/><polygon class="cls-18" points="80.66 50.51 80.53 50.58 80.53 51.55 80.66 51.48 80.66 50.51"/></g><polygon class="cls-28" points="91.85 47.29 81.13 53.48 81.13 47.65 91.85 41.46 91.85 47.29"/><g><polygon class="cls-24" points="86.27 46.57 86.26 45.71 86.3 45.7 86.3 46.59 83.2 48.38 83.2 48.34 86.27 46.57"/><polygon class="cls-23" points="86.14 46.51 86.14 45.78 86.26 45.71 86.26 46.58 83.2 48.34 83.2 48.21 86.14 46.51"/><polygon class="cls-22" points="86.14 45.78 86.14 46.51 83.2 48.21 83.2 47.48 86.14 45.78"/><polygon class="cls-24" points="85.25 46.3 85.25 47.2 85.22 47.22 85.22 46.32 85.25 46.3"/><polygon class="cls-24" points="84.1 46.97 84.1 47.86 84.07 47.88 84.07 46.98 84.1 46.97"/><path class="cls-20" d="M83.17,48.44l3.16-1.83v-.97l-3.16,1.83v.97Zm2.1-1.25v-.9l1.03-.59v.9l-1.03,.59Zm-1.15,.66v-.9l1.12-.65v.9l-1.12,.65Zm-.92,.53v-.9l.89-.52v.9l-.89,.52Z"/><polygon class="cls-18" points="86.33 45.64 86.44 45.7 86.44 46.67 86.33 46.61 86.33 45.64"/><polygon class="cls-18" points="86.33 46.61 86.44 46.67 83.27 48.5 83.17 48.44 86.33 46.61"/><polygon class="cls-28" points="86.31 45.62 86.44 45.7 83.27 47.53 83.14 47.45 86.31 45.62"/><polygon class="cls-28" points="83.14 47.45 83.27 47.53 83.27 48.5 83.14 48.42 83.14 47.45"/></g><g><polygon class="cls-24" points="86.27 48.74 86.26 47.88 86.3 47.86 86.3 48.76 83.2 50.55 83.2 50.51 86.27 48.74"/><polygon class="cls-23" points="86.14 48.68 86.14 47.95 86.26 47.88 86.26 48.74 83.2 50.51 83.2 50.37 86.14 48.68"/><polygon class="cls-22" points="86.14 47.95 86.14 48.68 83.2 50.37 83.2 49.65 86.14 47.95"/><polygon class="cls-24" points="85.25 48.47 85.25 49.37 85.22 49.38 85.22 48.48 85.25 48.47"/><polygon class="cls-24" points="84.1 49.13 84.1 50.03 84.07 50.05 84.07 49.15 84.1 49.13"/><path class="cls-20" d="M83.17,50.6l3.16-1.83v-.97l-3.16,1.83v.97Zm2.1-1.25v-.9l1.03-.59v.9l-1.03,.59Zm-1.15,.66v-.9l1.12-.65v.9l-1.12,.65Zm-.92,.53v-.9l.89-.52v.9l-.89,.52Z"/><polygon class="cls-18" points="86.33 47.81 86.44 47.87 86.44 48.84 86.33 48.78 86.33 47.81"/><polygon class="cls-18" points="86.33 48.78 86.44 48.84 83.27 50.66 83.17 50.6 86.33 48.78"/><polygon class="cls-28" points="86.31 47.79 86.44 47.87 83.27 49.69 83.14 49.62 86.31 47.79"/><polygon class="cls-28" points="83.14 49.62 83.27 49.69 83.27 50.66 83.14 50.59 83.14 49.62"/></g><g><polygon class="cls-24" points="90.08 44.36 90.08 43.5 90.12 43.48 90.12 44.38 87.03 46.17 87.03 46.13 90.08 44.36"/><polygon class="cls-23" points="89.96 44.3 89.96 43.57 90.08 43.5 90.08 44.36 87.02 46.13 87.02 46 89.96 44.3"/><polygon class="cls-22" points="89.96 43.57 89.96 44.3 87.02 46 87.02 45.27 89.96 43.57"/><polygon class="cls-24" points="89.07 44.09 89.07 44.99 89.04 45 89.04 44.11 89.07 44.09"/><polygon class="cls-24" points="87.92 44.75 87.92 45.65 87.89 45.67 87.89 44.77 87.92 44.75"/><path class="cls-20" d="M86.99,46.23l3.16-1.83v-.97l-3.16,1.83v.97Zm2.1-1.25v-.9l1.03-.59v.9l-1.03,.59Zm-1.15,.66v-.9l1.12-.65v.9l-1.12,.65Zm-.92,.53v-.9l.89-.52v.9l-.89,.52Z"/><polygon class="cls-18" points="90.15 43.43 90.25 43.49 90.25 44.46 90.15 44.4 90.15 43.43"/><polygon class="cls-18" points="90.15 44.4 90.25 44.46 87.09 46.29 86.99 46.23 90.15 44.4"/><polygon class="cls-28" points="90.13 43.41 90.25 43.49 87.09 45.31 86.96 45.24 90.13 43.41"/><polygon class="cls-28" points="86.96 45.24 87.09 45.31 87.09 46.29 86.96 46.21 86.96 45.24"/></g><g><polygon class="cls-24" points="90.08 46.53 90.08 45.67 90.12 45.65 90.12 46.55 87.03 48.34 87.03 48.3 90.08 46.53"/><polygon class="cls-23" points="89.96 46.47 89.96 45.74 90.08 45.67 90.08 46.53 87.02 48.3 87.02 48.16 89.96 46.47"/><polygon class="cls-22" points="89.96 45.74 89.96 46.47 87.02 48.16 87.02 47.44 89.96 45.74"/><polygon class="cls-24" points="89.07 46.26 89.07 47.16 89.04 47.17 89.04 46.27 89.07 46.26"/><polygon class="cls-24" points="87.92 46.92 87.92 47.82 87.89 47.83 87.89 46.93 87.92 46.92"/><path class="cls-20" d="M86.99,48.39l3.16-1.83v-.97l-3.16,1.83v.97Zm2.1-1.25v-.9l1.03-.59v.9l-1.03,.59Zm-1.15,.66v-.9l1.12-.65v.9l-1.12,.65Zm-.92,.53v-.9l.89-.52v.9l-.89,.52Z"/><polygon class="cls-18" points="90.15 45.59 90.25 45.66 90.25 46.63 90.15 46.56 90.15 45.59"/><polygon class="cls-18" points="90.15 46.56 90.25 46.63 87.09 48.45 86.99 48.39 90.15 46.56"/><polygon class="cls-28" points="90.13 45.58 90.25 45.66 87.09 47.48 86.96 47.41 90.13 45.58"/><polygon class="cls-28" points="86.96 47.41 87.09 47.48 87.09 48.45 86.96 48.38 86.96 47.41"/></g></g><g><polygon class="cls-27" points="81.13 46.88 71.94 41.57 82.72 35.34 91.91 40.65 81.13 46.88"/><polygon class="cls-12" points="90.48 40.56 89.85 40.93 82.77 36.85 73.94 41.95 73.3 41.58 82.77 36.11 90.48 40.56"/><polygon class="cls-25" points="89.85 40.93 81.02 46.04 73.94 41.95 82.77 36.85 89.85 40.93"/><polygon class="cls-12" points="81.13 47.71 71.94 42.4 71.94 41.57 81.13 46.88 81.13 47.71"/><polygon class="cls-19" points="91.91 41.49 81.13 47.71 81.13 46.88 91.91 40.65 91.91 41.49"/></g><g><path class="cls-21" d="M77.98,40.51c-.25-.15-.66-.15-.92,0-.25,.15-.25,.38,0,.53,.25,.15,.67,.15,.92,0,.25-.15,.25-.38,0-.53Z"/><path class="cls-41" d="M77.25,39.87h-.17v.85c0,.06,.04,.13,.13,.18,.17,.1,.44,.1,.62,0,.09-.05,.13-.11,.13-.18v-.85h-.17c-.16-.07-.37-.07-.53,0Z"/><path class="cls-43" d="M77.25,39.87h-.17v.02c0,.06,.04,.13,.13,.18,.17,.1,.44,.1,.62,0,.09-.05,.13-.11,.13-.18v-.11l-.17,.08c-.16-.07-.37-.07-.53,0Z"/><path class="cls-35" d="M77.12,39.36h-.25v.3c0,.1,.06,.19,.19,.27,.25,.15,.67,.15,.92,0,.13-.07,.19-.17,.19-.27v-.3h-.25c-.23-.1-.56-.1-.79,0Z"/><path class="cls-10" d="M77.98,39.09c-.25-.15-.66-.15-.92,0-.25,.15-.25,.38,0,.53,.25,.15,.67,.15,.92,0,.25-.15,.25-.38,0-.53Z"/><path class="cls-36" d="M77.86,39.16c-.18-.11-.49-.11-.67,0-.13,.08-.17,.19-.12,.28,.02-.04,.06-.08,.12-.11,.19-.11,.49-.11,.67,0,.06,.03,.1,.07,.12,.11,.05-.09,.01-.2-.12-.28Z"/><path class="cls-31" d="M77.86,39.33c-.18-.11-.49-.11-.67,0-.06,.03-.1,.07-.12,.11,.02,.04,.06,.08,.12,.11,.19,.11,.49,.11,.67,0,.06-.03,.1-.07,.12-.11-.02-.04-.06-.08-.12-.11Z"/><path class="cls-8" d="M77.64,39.52h-.01l.25-.12-.08-.05-.2,.15h-.02l.16-.17-.11-.03-.08,.18h-.02l.04-.19h-.12l.04,.19h-.02l-.08-.18-.11,.03,.16,.16h-.01l-.2-.14-.08,.05,.26,.11h0l-.28-.08-.04,.05v.02l.3,.04h-.25s.02,0,.04,.02c.01,0,.03,.02,.05,.02h.16l-.12,.02s.05,.01,.07,.02l.06-.02h0l-.04,.03s.03,0,.05,0h.02s.03,0,.04,0h.1v-.02h.03s.03,0,.05,0l-.04-.02h.07s.05,0,.07,0l-.12-.02h.16s.03-.01,.05-.02c.02,0,.03-.02,.04-.03l-.25,.02h0l.29-.06h.01l-.04-.06-.28,.09Z"/></g><g><path class="cls-21" d="M76.07,41.68c-.25-.15-.66-.15-.92,0-.25,.15-.25,.38,0,.53,.25,.15,.67,.15,.92,0,.25-.15,.25-.38,0-.53Z"/><path class="cls-46" d="M75.34,41.04h-.17v.85c0,.06,.04,.13,.13,.18,.17,.1,.45,.1,.62,0,.09-.05,.13-.11,.13-.18v-.85h-.17c-.16-.07-.38-.07-.53,0Z"/><path class="cls-43" d="M75.34,41.04h-.17v.03c0,.06,.04,.13,.13,.18,.17,.1,.45,.1,.62,0,.09-.05,.13-.11,.13-.18v-.11l-.17,.08c-.16-.07-.38-.07-.53,0Z"/><path class="cls-47" d="M75.21,40.53h-.25v.3c0,.1,.06,.19,.19,.27,.25,.15,.67,.15,.92,0,.13-.07,.19-.17,.19-.27v-.3h-.25c-.23-.11-.56-.11-.79,0Z"/><path class="cls-10" d="M76.07,40.26c-.25-.15-.66-.15-.92,0-.25,.15-.25,.39,0,.53,.25,.15,.67,.15,.92,0,.25-.15,.25-.38,0-.53Z"/><path class="cls-45" d="M75.95,40.33c-.19-.11-.49-.11-.68,0-.13,.08-.17,.19-.12,.28,.02-.04,.06-.08,.12-.11,.19-.11,.49-.11,.68,0,.06,.03,.09,.07,.12,.11,.05-.09,.01-.2-.12-.28Z"/><path class="cls-31" d="M75.95,40.5c-.19-.11-.49-.11-.68,0-.06,.03-.1,.07-.12,.11,.02,.04,.06,.08,.12,.11,.19,.11,.49,.11,.68,0,.06-.03,.09-.07,.12-.11-.02-.04-.06-.08-.12-.11Z"/><path class="cls-8" d="M75.72,40.69h-.01l.26-.12-.08-.05-.2,.15h-.02l.16-.17-.11-.03-.08,.18h-.02l.04-.19h-.12l.04,.18h-.02l-.08-.18-.11,.03,.16,.16h-.01l-.2-.14-.08,.05,.26,.11h0l-.28-.08-.04,.05v.02l.3,.04h-.25s.02,0,.04,.02c.01,0,.03,.02,.05,.02h.16l-.12,.02s.05,.02,.07,.02l.06-.02h0l-.04,.03s.03,0,.05,0h.02s.03,0,.04,0h.1v-.02h.03s.03,0,.05,0l-.04-.02h.07s.05,0,.07,0l-.12-.02h.16s.03-.01,.05-.02c.01,0,.02-.02,.04-.03l-.25,.02h0l.29-.06s0,0,.01-.01l-.04-.05-.28,.09Z"/></g></g><g><polygon class="cls-9" points="68.3 40.59 95.49 40.59 95.49 41.32 81.89 49.17 68.3 40.59"/><polygon class="cls-16" points="81.89 49.17 68.3 41.32 68.3 40.59 81.89 48.44 81.89 49.17"/><polygon class="cls-17" points="81.89 48.44 68.3 40.59 81.89 32.75 95.49 40.59 81.89 48.44"/><polygon class="cls-9" points="94.6 40.59 94.15 40.85 81.89 33.78 69.63 40.85 69.19 40.59 81.89 33.26 94.6 40.59"/><polygon class="cls-27" points="94.15 40.85 81.89 47.93 69.63 40.85 81.89 33.78 94.15 40.85"/><g><polygon class="cls-2" points="83.42 40.78 82 39.96 83.9 38.87 82.61 38.12 77.52 41.06 78.81 41.81 80.71 40.71 82.13 41.53 80.23 42.63 81.52 43.37 86.61 40.43 85.32 39.69 83.42 40.78"/><path class="cls-2" d="M86.8,38.01c-2.61-1.51-6.86-1.51-9.47,0-2.61,1.51-2.61,3.96,0,5.47,2.61,1.51,6.86,1.51,9.47,0,2.61-1.51,2.61-3.96,0-5.47Zm-9.13,5.27c-2.43-1.4-2.43-3.68,0-5.08,2.43-1.4,6.37-1.4,8.8,0,2.43,1.4,2.43,3.68,0,5.08-2.43,1.4-6.37,1.4-8.8,0Z"/></g></g></g><g><path class="cls-44" d="M53.24,60.78l-14.1-8.14,14.1-8.14,14.11,8.14-14.11,8.14Z"/><g><polygon class="cls-9" points="40.06 51.22 66.42 51.22 66.42 52.63 53.24 60.24 40.06 51.22"/><polygon class="cls-16" points="53.24 60.24 40.06 52.63 40.06 51.22 53.24 58.83 53.24 60.24"/><polygon class="cls-17" points="53.24 58.83 40.06 51.22 53.24 43.62 66.42 51.22 53.24 58.83"/></g><polygon class="cls-44" points="53.24 58.13 41.25 51.22 53.23 44.24 65.23 51.22 53.24 58.13"/><g><polygon class="cls-3" points="52.18 35.4 52.81 35.76 52.52 37.03 43.61 50.59 42.54 50.59 52.18 35.4"/><polygon class="cls-11" points="52.81 35.76 53.04 37.26 44.29 50.29 43.17 50.95 52.81 35.76"/></g><g><polygon class="cls-3" points="54.29 35.4 53.66 35.76 53.95 37.03 62.86 50.59 63.93 50.59 54.29 35.4"/><polygon class="cls-11" points="53.66 35.76 53.43 37.26 62.18 50.29 63.3 50.95 53.66 35.76"/></g><g><polygon class="cls-3" points="52.82 34.44 52.65 34.83 44.46 39.44 44.46 38.47 52.14 34.04 52.82 34.44"/><polygon class="cls-11" points="52.96 35.32 45.14 39.83 45.14 38.87 52.82 34.44 52.96 35.32"/></g><g><polygon class="cls-3" points="52.07 25.76 52.69 26.13 52.4 27.4 45.34 38.48 44.27 38.48 52.07 25.76"/><polygon class="cls-11" points="52.69 26.13 52.93 27.63 46.02 38.18 44.9 38.84 52.69 26.13"/></g><g><polygon class="cls-3" points="53.65 34.46 53.82 34.85 62 39.46 62 38.5 54.33 34.07 53.65 34.46"/><polygon class="cls-7" points="53.5 35.34 61.32 39.86 61.32 38.89 53.65 34.46 53.5 35.34"/></g><g><polygon class="cls-3" points="54.36 25.76 53.73 26.13 54.02 27.4 61.08 38.48 62.15 38.48 54.36 25.76"/><polygon class="cls-7" points="53.73 26.13 53.5 27.63 60.4 38.18 61.53 38.84 53.73 26.13"/></g><polygon class="cls-11" points="46.92 28.73 43.5 51.44 42.56 51.98 42.13 50.8 45.81 26.59 46.92 28.73"/><polygon class="cls-7" points="59.56 28.73 62.98 51.44 63.91 51.98 64.35 50.8 60.66 26.59 59.56 28.73"/><g><polygon class="cls-14" points="49.98 47.9 56.5 47.9 56.5 51.21 53.24 53.09 49.98 47.9"/><polygon class="cls-11" points="53.24 53.09 49.98 51.21 49.98 47.9 53.24 49.78 53.24 53.09"/><polygon class="cls-7" points="53.24 49.78 49.98 47.9 53.24 46.01 56.5 47.9 53.24 49.78"/></g><g><polygon class="cls-3" points="61.43 40.21 62.05 40.57 61.76 41.85 54.61 56.93 53.53 56.93 61.43 40.21"/><polygon class="cls-11" points="62.05 40.57 62.29 42.08 55.29 56.64 54.16 57.3 62.05 40.57"/></g><g><polygon class="cls-3" points="45.06 40.21 44.44 40.57 44.73 41.85 51.88 56.94 52.96 56.94 45.06 40.21"/><polygon class="cls-7" points="44.44 40.57 44.21 42.08 51.2 56.64 52.33 57.3 44.44 40.57"/></g><g><polygon class="cls-3" points="61.91 39.69 61.74 40.08 53.56 44.69 53.56 43.73 61.23 39.3 61.91 39.69"/><polygon class="cls-11" points="62.06 40.57 54.24 45.09 54.24 44.12 61.91 39.69 62.06 40.57"/></g><g><polygon class="cls-3" points="59.67 28.63 60.3 28.99 60.01 30.27 54.44 43.73 53.37 43.73 59.67 28.63"/><polygon class="cls-11" points="60.3 28.99 60.54 30.5 55.12 43.44 53.99 44.1 60.3 28.99"/></g><g><polygon class="cls-3" points="44.58 39.69 44.75 40.08 52.93 44.69 52.93 43.73 45.26 39.3 44.58 39.69"/><polygon class="cls-7" points="44.44 40.57 52.25 45.09 52.25 44.12 44.58 39.69 44.44 40.57"/></g><g><polygon class="cls-3" points="46.93 28.63 46.3 28.99 46.59 30.27 52.16 43.73 53.24 43.73 46.93 28.63"/><polygon class="cls-7" points="46.3 28.99 46.07 30.5 51.49 43.44 52.61 44.1 46.3 28.99"/></g><polygon class="cls-11" points="54.35 32.82 60.49 29.27 63.91 51.98 65.23 51.22 61.6 27.13 53.24 31.96 53.24 58.13 54.38 57.47 54.35 32.82"/><polygon class="cls-7" points="52.13 32.82 45.98 29.27 42.56 51.98 41.25 51.22 44.88 27.13 53.24 31.96 53.24 58.13 52.09 57.47 52.13 32.82"/><g><polygon class="cls-9" points="44.18 26.28 62.3 26.28 62.3 27.26 53.24 32.49 44.18 26.28"/><polygon class="cls-16" points="53.24 32.49 44.18 27.26 44.18 26.28 53.24 31.52 53.24 32.49"/><polygon class="cls-17" points="53.24 31.52 44.18 26.28 53.24 21.05 62.3 26.28 53.24 31.52"/></g><polygon class="cls-44" points="53.24 31.04 44.99 26.28 53.24 21.48 61.49 26.28 53.24 31.04"/><g><polygon class="cls-3" points="52.51 15.4 52.94 15.65 52.74 16.53 46.62 25.85 45.88 25.85 52.51 15.4"/><polygon class="cls-11" points="52.94 15.65 53.1 16.68 47.08 25.64 46.31 26.1 52.94 15.65"/></g><g><polygon class="cls-3" points="53.96 15.4 53.53 15.65 53.73 16.53 59.86 25.85 60.59 25.85 53.96 15.4"/><polygon class="cls-11" points="53.53 15.65 53.37 16.68 59.39 25.64 60.16 26.1 53.53 15.65"/></g><g><polygon class="cls-3" points="52.95 14.74 52.83 15.01 47.2 18.18 47.2 17.52 52.48 14.47 52.95 14.74"/><polygon class="cls-11" points="53.05 15.35 47.67 18.45 47.67 17.79 52.95 14.74 53.05 15.35"/></g><g><polygon class="cls-3" points="52.43 8.77 52.86 9.02 52.66 9.9 47.81 17.52 47.07 17.52 52.43 8.77"/><polygon class="cls-11" points="52.86 9.02 53.02 10.06 48.28 17.31 47.5 17.77 52.86 9.02"/></g><g><polygon class="cls-3" points="53.52 14.75 53.64 15.02 59.27 18.2 59.27 17.53 53.99 14.48 53.52 14.75"/><polygon class="cls-7" points="53.42 15.36 58.8 18.46 58.8 17.8 53.52 14.75 53.42 15.36"/></g><g><polygon class="cls-3" points="54.01 8.77 53.58 9.02 53.78 9.9 58.63 17.52 59.37 17.52 54.01 8.77"/><polygon class="cls-7" points="53.58 9.02 53.42 10.06 58.17 17.31 58.94 17.77 53.58 9.02"/></g><polygon class="cls-11" points="48.89 10.81 46.54 26.43 45.9 26.8 45.6 25.99 48.13 9.34 48.89 10.81"/><polygon class="cls-7" points="57.58 10.81 59.94 26.43 60.58 26.8 60.88 25.99 58.35 9.34 57.58 10.81"/><g><polygon class="cls-14" points="49.98 22.97 56.5 22.97 56.5 26.28 53.24 28.17 49.98 22.97"/><polygon class="cls-11" points="53.24 28.17 49.98 26.28 49.98 22.97 53.24 24.85 53.24 28.17"/><polygon class="cls-7" points="53.24 24.85 49.98 22.97 53.24 21.08 56.5 22.97 53.24 24.85"/></g><g><path class="cls-28" d="M54.24,23.04V12.71h-2.01v10.34c0,.15,.1,.3,.29,.41,.39,.23,1.03,.23,1.42,0,.19-.11,.29-.26,.29-.41Z"/><path class="cls-6" d="M53.95,13.12c-.39,.23-1.03,.23-1.42,0-.39-.23-.39-.59,0-.82,.39-.23,1.03-.23,1.42,0,.39,.23,.39,.59,0,.82Z"/></g><g><polygon class="cls-3" points="58.87 18.71 59.3 18.96 59.1 19.84 54.18 30.21 53.44 30.21 58.87 18.71"/><polygon class="cls-11" points="59.3 18.96 59.46 19.99 54.65 30.01 53.87 30.46 59.3 18.96"/></g><g><polygon class="cls-3" points="47.62 18.71 47.18 18.96 47.38 19.84 52.3 30.21 53.04 30.21 47.62 18.71"/><polygon class="cls-7" points="47.18 18.96 47.02 19.99 51.84 30.01 52.61 30.46 47.18 18.96"/></g><g><polygon class="cls-3" points="59.21 18.35 59.09 18.62 53.46 21.79 53.46 21.13 58.74 18.08 59.21 18.35"/><polygon class="cls-11" points="59.31 18.96 53.93 22.06 53.93 21.4 59.21 18.35 59.31 18.96"/></g><g><polygon class="cls-3" points="57.67 10.74 58.1 10.99 57.9 11.87 54.06 21.13 53.33 21.13 57.67 10.74"/><polygon class="cls-11" points="58.1 10.99 58.26 12.03 54.53 20.93 53.76 21.38 58.1 10.99"/></g><g><polygon class="cls-3" points="47.28 18.35 47.4 18.62 53.03 21.79 53.03 21.13 47.75 18.08 47.28 18.35"/><polygon class="cls-7" points="47.18 18.96 52.56 22.06 52.56 21.4 47.28 18.35 47.18 18.96"/></g><g><polygon class="cls-3" points="48.9 10.74 48.47 10.99 48.67 11.87 52.5 21.13 53.24 21.13 48.9 10.74"/><polygon class="cls-7" points="48.47 10.99 48.31 12.03 52.03 20.93 52.81 21.38 48.47 10.99"/></g><g><polygon class="cls-9" points="47.49 8.69 58.99 8.69 58.99 9.71 53.24 13.03 47.49 8.69"/><polygon class="cls-16" points="53.24 13.03 47.49 9.71 47.49 8.69 53.24 12 53.24 13.03"/><polygon class="cls-17" points="53.24 12 47.49 8.69 53.24 5.37 58.99 8.69 53.24 12"/></g><g><polygon class="cls-14" points="49.26 6.48 57.22 6.48 57.22 8.67 53.24 10.97 49.26 6.48"/><polygon class="cls-11" points="53.24 10.97 49.26 8.67 49.26 6.48 53.24 8.77 53.24 10.97"/><polygon class="cls-7" points="53.24 8.77 49.26 6.48 53.24 4.18 57.22 6.48 53.24 8.77"/></g><polygon class="cls-11" points="54 13.63 58.23 11.18 60.58 26.8 61.49 26.28 58.99 9.71 53.24 13.03 53.24 31.04 54.03 30.58 54 13.63"/><polygon class="cls-7" points="52.48 13.63 48.25 11.18 45.9 26.8 44.99 26.28 47.49 9.71 53.24 13.03 53.24 31.04 52.45 30.58 52.48 13.63"/><g><path class="cls-28" d="M54.27,6.48V2.44h-2.07V6.48c0,.15,.1,.3,.3,.42,.41,.23,1.06,.23,1.46,0,.2-.12,.3-.27,.3-.42Z"/><path class="cls-6" d="M53.97,2.86c-.41,.23-1.06,.23-1.46,0-.4-.23-.4-.61,0-.84,.41-.23,1.06-.23,1.46,0,.4,.23,.4,.61,0,.84Z"/><path class="cls-19" d="M53.86,2.8c-.35,.2-.9,.2-1.25,0-.34-.2-.34-.52,0-.72,.34-.2,.9-.2,1.25,0,.34,.2,.34,.52,0,.72Z"/></g><g><path class="cls-18" d="M52.36,2.44c0-3.36,5-2.48,7.14-1.8-3.26,.64-3.66,2.31-6.26,2.31-.95,0-.88-.39-.88-.51Z"/><path class="cls-7" d="M52.36,2.44c.5-1.93,2.96-2.37,5.28-1.57-3.26,.64-2.66,1.94-4.4,2.08-.95,0-.88-.39-.88-.51Z"/><path class="cls-3" d="M52.36,2.44c.48-.71,1.36-2,3.79-1.43-2.05,.36-1.61,1.68-2.91,1.94-.95,0-.88-.39-.88-.51Z"/></g></g><g><polygon class="cls-29" points="42.95 69.38 74.23 63.91 74.23 64.5 53.86 76.27 42.95 69.38"/><polygon class="cls-16" points="53.86 76.27 42.95 69.97 42.95 69.38 53.86 75.69 53.86 76.27"/><polygon class="cls-15" points="53.86 75.69 42.95 69.38 63.31 57.61 74.23 63.91 53.86 75.69"/></g><g><path class="cls-44" d="M68.31,60.99c-1.25-.72-2.9-1.12-4.65-1.12s-3.4,.4-4.65,1.12c-1.27,.73-1.97,1.72-1.97,2.78,0,.96,.58,1.86,1.64,2.57-.05,.04-.09,.1-.09,.16,0,.07,.04,.13,.12,.18,.06,.03,.14,.05,.22,.05s.16-.02,.22-.05c.02,0,.03-.02,.04-.03,1.22,.66,2.8,1.02,4.47,1.02s3.4-.4,4.65-1.12c1.27-.74,1.97-1.72,1.97-2.78s-.7-2.05-1.97-2.78Z"/><g><path class="cls-7" d="M70.11,63.77v-.28h-12.9v.28c0,.96,.63,1.9,1.89,2.64,2.52,1.46,6.6,1.45,9.12,0,1.26-.73,1.89-1.68,1.89-2.64Z"/><path class="cls-3" d="M68.22,66.11c-2.52,1.46-6.6,1.46-9.12,0-2.52-1.46-2.52-3.81,0-5.26,2.52-1.46,6.6-1.46,9.12,0,2.52,1.45,2.52,3.81,0,5.26Z"/></g><g><path class="cls-9" d="M69.73,63.32v-7.53h-12.14v7.53c0,.9,.59,1.79,1.78,2.48,2.37,1.37,6.21,1.37,8.59,0,1.18-.69,1.77-1.58,1.77-2.48Z"/><path class="cls-15" d="M67.95,58.27c-2.37,1.37-6.21,1.37-8.59,0-2.37-1.37-2.37-3.59,0-4.95,2.37-1.37,6.21-1.37,8.59,0,2.37,1.37,2.37,3.59,0,4.95Z"/><path class="cls-9" d="M68.96,55.9c-.05-.75-.56-1.49-1.55-2.06-2.07-1.2-5.43-1.2-7.5,0-.99,.57-1.5,1.31-1.55,2.06-.05-.82,.47-1.65,1.55-2.27,2.07-1.2,5.43-1.2,7.5,0,1.08,.62,1.6,1.45,1.55,2.27Z"/><path class="cls-16" d="M68.96,55.9c-.05,.75-.56,1.49-1.55,2.06-2.07,1.2-5.43,1.2-7.5,0-.99-.57-1.5-1.31-1.55-2.06,.05-.75,.56-1.49,1.55-2.06,2.07-1.2,5.43-1.2,7.5,0,.99,.57,1.5,1.31,1.55,2.06Z"/></g><g><polygon class="cls-22" points="68.43 65.75 68.36 65.79 68.36 58.06 68.43 58.02 68.43 65.75"/><polygon class="cls-30" points="68.43 58.02 68.36 58.06 68.12 57.92 68.19 57.89 68.43 58.02"/><polygon class="cls-23" points="68.36 65.79 68.26 65.73 68.26 58.08 68.09 57.98 68.12 57.92 68.36 58.06 68.36 65.79"/><polygon class="cls-30" points="68.35 58.61 67.71 58.98 67.65 58.85 68.28 58.48 68.35 58.61"/><polygon class="cls-30" points="68.35 59.31 67.71 59.67 67.65 59.54 68.28 59.18 68.35 59.31"/><polygon class="cls-30" points="68.35 60 67.71 60.37 67.65 60.24 68.28 59.87 68.35 60"/><polygon class="cls-30" points="68.35 60.69 67.71 61.06 67.65 60.93 68.28 60.56 68.35 60.69"/><polygon class="cls-30" points="68.35 61.39 67.71 61.76 67.65 61.63 68.28 61.26 68.35 61.39"/><polygon class="cls-30" points="68.35 62.08 67.71 62.45 67.65 62.32 68.28 61.95 68.35 62.08"/><polygon class="cls-30" points="68.35 62.78 67.71 63.14 67.65 63.02 68.28 62.65 68.35 62.78"/><polygon class="cls-30" points="68.35 63.47 67.71 63.84 67.65 63.71 68.28 63.34 68.35 63.47"/><polygon class="cls-30" points="68.35 64.17 67.71 64.53 67.65 64.4 68.28 64.04 68.35 64.17"/><polygon class="cls-30" points="68.35 64.86 67.71 65.23 67.65 65.1 68.28 64.73 68.35 64.86"/><polygon class="cls-30" points="68.35 65.55 67.71 65.92 67.65 65.79 68.28 65.42 68.35 65.55"/><polygon class="cls-22" points="67.72 66.16 67.66 66.19 67.66 58.46 67.72 58.43 67.72 66.16"/><polygon class="cls-30" points="67.72 58.43 67.66 58.46 67.42 58.33 67.49 58.29 67.72 58.43"/><polygon class="cls-23" points="67.66 66.19 67.56 66.14 67.56 58.48 67.39 58.38 67.42 58.33 67.66 58.46 67.66 66.19"/></g><g><polygon class="cls-9" points="65.68 57.74 64.6 57.11 64.6 56.94 66.76 56.94 66.76 57.11 65.68 57.74"/><polygon class="cls-17" points="65.68 57.56 64.6 56.94 65.68 56.31 66.76 56.94 65.68 57.56"/><polygon class="cls-9" points="66.47 56.94 66.35 57.01 65.68 56.62 65.02 57.01 64.89 56.94 65.68 56.48 66.47 56.94"/><polygon class="cls-12" points="66.35 57.01 65.68 57.39 65.02 57.01 65.68 56.62 66.35 57.01"/></g><g><path class="cls-44" d="M63.68,55.94c-.08,0-.15-.02-.21-.05-.07-.04-.11-.1-.11-.16s.04-.12,.11-.16c.11-.07,.3-.07,.42,0,.07,.04,.1,.1,.1,.16s-.04,.12-.1,.16c-.06,.03-.13,.05-.21,.05Z"/><g><path class="cls-12" d="M59.17,66.5v-.19h-.5v.19s.02,.07,.07,.1c.1,.06,.25,.06,.35,0,.05-.03,.07-.07,.07-.1Z"/><path class="cls-27" d="M59.1,66.41c-.1,.06-.26,.06-.35,0-.1-.05-.1-.15,0-.2,.1-.06,.25-.06,.35,0,.1,.06,.1,.15,0,.2Z"/></g><g><path class="cls-12" d="M63.93,55.73v-.19h-.5v.19s.02,.07,.07,.1c.1,.06,.26,.06,.35,0,.05-.03,.07-.07,.07-.1Z"/><path class="cls-27" d="M63.86,55.64c-.1,.06-.26,.06-.35,0-.1-.06-.1-.15,0-.2,.1-.06,.26-.06,.35,0,.1,.06,.1,.15,0,.2Z"/></g><path class="cls-28" d="M58.93,66.4c-.1,0-.19-.04-.19-.15v-8.21c0-.39,.26-.85,.6-1.04l3.74-2.15c.19-.11,.39-.12,.55-.03,.16,.09,.24,.27,.24,.49v.19c0,.11-.08,.15-.19,.15s-.19-.04-.19-.15v-.19c0-.1-.03-.15-.05-.16-.03-.02-.08-.02-.17,.03l-3.74,2.15c-.22,.13-.41,.46-.41,.71v8.21c0,.1-.09,.15-.19,.15Z"/></g></g><g><path class="cls-44" d="M58.39,66.71c-1.25-.72-2.9-1.11-4.65-1.11s-3.4,.4-4.65,1.11c-1.27,.74-1.97,1.72-1.97,2.78,0,.96,.58,1.86,1.64,2.57-.05,.04-.09,.1-.09,.16,0,.07,.04,.13,.12,.18,.06,.03,.14,.05,.22,.05s.16-.02,.22-.05c.02,0,.03-.02,.04-.03,1.22,.66,2.8,1.02,4.47,1.02s3.4-.4,4.65-1.12c1.27-.74,1.97-1.72,1.97-2.78,0-1.06-.7-2.05-1.97-2.78Z"/><g><path class="cls-7" d="M60.19,69.5v-.28h-12.9v.28c0,.96,.63,1.9,1.89,2.64,2.52,1.46,6.6,1.45,9.12,0,1.26-.73,1.89-1.68,1.89-2.64Z"/><path class="cls-3" d="M58.3,71.84c-2.52,1.46-6.6,1.46-9.12,0-2.52-1.46-2.52-3.81,0-5.27,2.52-1.45,6.6-1.45,9.12,0,2.52,1.46,2.52,3.81,0,5.27Z"/></g><g><path class="cls-9" d="M59.81,69.05v-7.53h-12.14v7.53c0,.9,.59,1.79,1.78,2.48,2.37,1.37,6.21,1.37,8.59,0,1.18-.69,1.77-1.58,1.77-2.48Z"/><path class="cls-15" d="M58.03,64c-2.37,1.37-6.21,1.37-8.59,0-2.37-1.37-2.37-3.59,0-4.96,2.37-1.37,6.21-1.37,8.59,0,2.37,1.37,2.37,3.59,0,4.96Z"/><path class="cls-9" d="M59.04,61.63c-.04-.75-.56-1.49-1.55-2.06-2.07-1.2-5.43-1.2-7.51,0-.99,.57-1.5,1.31-1.55,2.06-.05-.82,.47-1.65,1.55-2.27,2.07-1.2,5.43-1.2,7.51,0,1.08,.62,1.6,1.45,1.55,2.27Z"/><path class="cls-16" d="M59.04,61.63c-.04,.75-.56,1.49-1.55,2.06-2.07,1.2-5.43,1.2-7.51,0-.99-.57-1.5-1.31-1.55-2.06,.04-.75,.56-1.49,1.55-2.06,2.07-1.2,5.43-1.2,7.51,0,.99,.57,1.5,1.31,1.55,2.06Z"/></g><g><polygon class="cls-22" points="58.5 71.48 58.44 71.52 58.44 63.79 58.5 63.75 58.5 71.48"/><polygon class="cls-30" points="58.5 63.75 58.44 63.79 58.2 63.65 58.26 63.62 58.5 63.75"/><polygon class="cls-23" points="58.44 71.52 58.34 71.46 58.34 63.81 58.17 63.71 58.2 63.65 58.44 63.79 58.44 71.52"/><polygon class="cls-30" points="58.43 64.34 57.79 64.71 57.73 64.58 58.36 64.21 58.43 64.34"/><polygon class="cls-30" points="58.43 65.04 57.79 65.4 57.73 65.27 58.36 64.91 58.43 65.04"/><polygon class="cls-30" points="58.43 65.73 57.79 66.1 57.73 65.97 58.36 65.6 58.43 65.73"/><polygon class="cls-30" points="58.43 66.42 57.79 66.79 57.73 66.66 58.36 66.29 58.43 66.42"/><polygon class="cls-30" points="58.43 67.12 57.79 67.49 57.73 67.36 58.36 66.99 58.43 67.12"/><polygon class="cls-30" points="58.43 67.81 57.79 68.18 57.73 68.05 58.36 67.68 58.43 67.81"/><polygon class="cls-30" points="58.43 68.51 57.79 68.87 57.73 68.74 58.36 68.38 58.43 68.51"/><polygon class="cls-30" points="58.43 69.2 57.79 69.57 57.73 69.44 58.36 69.07 58.43 69.2"/><polygon class="cls-30" points="58.43 69.89 57.79 70.26 57.73 70.13 58.36 69.76 58.43 69.89"/><polygon class="cls-30" points="58.43 70.59 57.79 70.96 57.73 70.83 58.36 70.46 58.43 70.59"/><polygon class="cls-30" points="58.43 71.28 57.79 71.65 57.73 71.52 58.36 71.15 58.43 71.28"/><polygon class="cls-22" points="57.8 71.89 57.74 71.92 57.74 64.19 57.8 64.16 57.8 71.89"/><polygon class="cls-30" points="57.8 64.16 57.74 64.19 57.5 64.06 57.56 64.02 57.8 64.16"/><polygon class="cls-23" points="57.74 71.92 57.64 71.86 57.64 64.21 57.46 64.11 57.5 64.06 57.74 64.19 57.74 71.92"/></g><g><polygon class="cls-9" points="55.76 63.47 54.68 62.84 54.68 62.67 56.84 62.67 56.84 62.84 55.76 63.47"/><polygon class="cls-17" points="55.76 63.29 54.68 62.67 55.76 62.04 56.84 62.67 55.76 63.29"/><polygon class="cls-9" points="56.55 62.67 56.43 62.74 55.76 62.35 55.09 62.74 54.97 62.67 55.76 62.21 56.55 62.67"/><polygon class="cls-12" points="56.43 62.74 55.76 63.12 55.09 62.74 55.76 62.35 56.43 62.74"/></g><g><path class="cls-44" d="M53.76,61.67c-.08,0-.15-.02-.21-.05-.07-.04-.11-.1-.11-.16s.04-.12,.11-.16c.11-.07,.3-.07,.42,0,.07,.04,.11,.1,.11,.16s-.04,.12-.1,.16c-.06,.03-.13,.05-.21,.05Z"/><g><path class="cls-12" d="M49.25,72.23v-.19h-.5v.19s.02,.07,.07,.1c.1,.06,.26,.06,.35,0,.05-.03,.07-.06,.07-.1Z"/><path class="cls-27" d="M49.18,72.14c-.1,.06-.26,.06-.35,0-.1-.06-.1-.15,0-.2,.1-.06,.26-.06,.35,0,.1,.06,.1,.15,0,.2Z"/></g><g><path class="cls-12" d="M54.01,61.46v-.19h-.5v.19s.02,.07,.07,.1c.1,.06,.26,.06,.35,0,.05-.03,.07-.06,.07-.1Z"/><path class="cls-27" d="M53.94,61.37c-.1,.06-.25,.06-.35,0-.1-.06-.1-.15,0-.2,.1-.06,.26-.06,.35,0,.1,.06,.1,.15,0,.2Z"/></g><path class="cls-28" d="M49.01,72.13c-.1,0-.19-.04-.19-.15v-8.21c0-.39,.26-.85,.6-1.04l3.74-2.15c.19-.11,.39-.12,.55-.03,.16,.09,.24,.27,.24,.49v.19c0,.1-.08,.15-.19,.15s-.19-.04-.19-.15v-.19c0-.1-.03-.15-.05-.16-.03-.01-.08-.01-.17,.03l-3.74,2.15c-.22,.13-.41,.46-.41,.71v8.21c0,.1-.08,.15-.19,.15Z"/></g></g><g><path class="cls-21" d="M30.96,59.67c-.66,0-1.27-.15-1.74-.42-.48-.28-.75-.65-.75-1.06s.27-.78,.75-1.06c.47-.27,1.08-.42,1.74-.42s1.27,.15,1.74,.42c.48,.28,.75,.65,.75,1.06s-.26,.78-.75,1.06c-.46,.27-1.08,.42-1.74,.42Z"/><g><path class="cls-7" d="M33.35,58.2v-.1h-4.8v.1c0,.35,.23,.71,.7,.98,.94,.54,2.45,.54,3.39,0,.47-.27,.7-.63,.7-.98Z"/><path class="cls-3" d="M32.65,59.07c-.94,.54-2.45,.54-3.39,0-.94-.54-.94-1.42,0-1.96,.94-.54,2.45-.54,3.39,0,.94,.54,.94,1.42,0,1.96Z"/></g><path class="cls-15" d="M33.21,58.03v-3.95h-4.51v3.95c0,.33,.22,.66,.66,.92,.88,.51,2.31,.51,3.19,0,.44-.26,.66-.59,.66-.92Z"/><path class="cls-17" d="M33.16,53.81h0l-.61-1.75h-3.21l-.61,1.76c-.14,.41,.06,.85,.62,1.17,.88,.51,2.31,.51,3.19,0,.56-.32,.76-.77,.61-1.19Z"/><path class="cls-4" d="M32.12,52.96c-.64,.37-1.69,.37-2.33,0-.64-.37-.64-.98,0-1.35,.64-.37,1.69-.37,2.33,0,.64,.37,.64,.97,0,1.35Z"/></g><g><path class="cls-21" d="M36.35,62.78c-.66,0-1.27-.15-1.74-.42-.48-.28-.75-.65-.75-1.06s.27-.78,.75-1.06c.47-.27,1.08-.42,1.74-.42s1.28,.15,1.74,.42c.48,.28,.75,.65,.75,1.06,0,.4-.27,.78-.75,1.06-.47,.27-1.08,.42-1.74,.42Z"/><g><path class="cls-7" d="M38.75,61.31v-.1h-4.79v.1c0,.36,.24,.71,.7,.98,.94,.54,2.45,.54,3.39,0,.47-.27,.7-.63,.7-.98Z"/><path class="cls-3" d="M38.05,62.18c-.94,.54-2.45,.54-3.39,0-.94-.54-.94-1.42,0-1.96,.94-.54,2.45-.54,3.39,0,.94,.54,.94,1.42,0,1.96Z"/></g><path class="cls-15" d="M38.61,61.14v-3.95h-4.51v3.95c0,.33,.22,.67,.66,.92,.88,.51,2.31,.51,3.19,0,.44-.26,.66-.59,.66-.92Z"/><path class="cls-17" d="M38.56,56.92h0l-.61-1.75h-3.21l-.61,1.76c-.14,.41,.07,.86,.62,1.17,.88,.51,2.31,.51,3.19,0,.56-.32,.76-.77,.61-1.19Z"/><path class="cls-4" d="M37.51,56.07c-.64,.37-1.69,.37-2.33,0-.64-.37-.64-.98,0-1.35,.64-.37,1.69-.37,2.33,0,.65,.37,.65,.97,0,1.35Z"/></g><g><path class="cls-21" d="M41.62,65.83c-.66,0-1.27-.15-1.74-.42-.48-.28-.75-.65-.75-1.06s.26-.78,.75-1.06c.47-.27,1.08-.42,1.74-.42s1.28,.15,1.74,.42c.48,.28,.74,.65,.75,1.06,0,.4-.27,.78-.75,1.06-.47,.27-1.09,.42-1.74,.42Z"/><g><path class="cls-7" d="M44.02,64.35v-.1h-4.79v.1c0,.36,.23,.71,.7,.98,.94,.54,2.46,.54,3.39,0,.47-.27,.7-.63,.7-.98Z"/><path class="cls-3" d="M43.32,65.22c-.94,.54-2.46,.54-3.39,0-.94-.54-.94-1.42,0-1.96,.94-.54,2.46-.54,3.39,0,.94,.54,.94,1.42,0,1.96Z"/></g><path class="cls-15" d="M43.87,64.18v-3.95h-4.51v3.95c0,.33,.22,.67,.66,.92,.88,.51,2.31,.51,3.19,0,.44-.26,.66-.59,.66-.92Z"/><path class="cls-17" d="M43.83,59.97h0l-.61-1.75h-3.21l-.61,1.76c-.14,.41,.06,.86,.62,1.17,.88,.51,2.31,.51,3.19,0,.56-.32,.76-.77,.61-1.19Z"/><path class="cls-4" d="M42.78,59.11c-.64,.37-1.69,.37-2.33,0-.64-.37-.64-.98,0-1.35,.64-.37,1.69-.37,2.33,0,.64,.37,.64,.97,0,1.35Z"/></g></g></g></svg>