<?xml version="1.0" encoding="UTF-8"?><svg id="Layer_2" xmlns="http://www.w3.org/2000/svg" viewBox="0 0 87.04 71.3"><defs><style>.cls-1{fill:#ff9d26;}.cls-2{fill:#fff;}.cls-3{fill:#ff3f4a;}.cls-4{fill:#ff8400;}.cls-5{fill:#939598;}.cls-6{fill:#ba6000;}.cls-7{fill:#303033;}.cls-8{fill:#333;}.cls-9{fill:#bcbec0;}.cls-10{fill:#a7a9ac;}.cls-11{fill:#b2b2b2;}.cls-12{fill:#dedede;}.cls-13{fill:#d1c699;}.cls-14{fill:#d1d3d4;}.cls-15{fill:#e31b25;}.cls-16{fill:#e32d36;}.cls-17{fill:#121214;}.cls-18{fill:#174666;}.cls-19{fill:#1d374e;}.cls-20{fill:#3576ab;}.cls-21{fill:#1a1a1a;}.cls-22{fill:#535359;}.cls-23{fill:#9c251f;}.cls-24{fill:#821f1a;}.cls-25{fill:#292929;}.cls-26{fill:#2b5e85;}.cls-27{opacity:.3;}</style></defs><g id="Layer_1-2"><g><polygon class="cls-27" points=".45 62.75 14.93 71.3 86.5 30 72.02 21.46 .45 62.75"/><path class="cls-25" d="M24.78,43.78h0s0,0,0,0Z"/><polygon class="cls-17" points="25.86 58.4 44.52 47.61 44.52 45.05 25.86 55.84 25.86 58.4"/><g><g><path class="cls-21" d="M31.31,40.28h0c-.49-.28-1.16-.23-1.9,.19-1.49,.86-2.7,2.95-2.7,4.67,0,.87,.31,1.47,.8,1.75l2.11,1.21v-1.54c1.39-.93,2.49-2.9,2.49-4.54,0-.03,0-.07,0-.1h.91l.56-.36-2.24-1.29h-.02Z"/><path class="cls-8" d="M31.6,41.72c-1.49,.86-2.7,2.95-2.7,4.67s1.21,2.42,2.7,1.56c1.49-.86,2.7-2.95,2.7-4.67s-1.21-2.42-2.7-1.56Z"/><path class="cls-11" d="M31.6,43.13c-.82,.47-1.48,1.62-1.48,2.56s.66,1.32,1.48,.85c.82-.47,1.48-1.62,1.48-2.56s-.66-1.33-1.48-.85Z"/><path class="cls-12" d="M31.6,44.5c-.16,.09-.29,.32-.29,.5s.13,.26,.29,.17c.16-.09,.29-.32,.29-.5s-.13-.26-.29-.17Z"/></g><g><path class="cls-1" d="M29.95,39.7c-1.01,.58-1.95,1.59-2.64,2.83-.7,1.25-1.06,2.56-1.01,3.7l2.07,1.21c-.04-.98,.49-2.56,1.09-3.63,.6-1.07,1.25-1.83,2.13-2.33,.87-.5,1.01-.45,1.01-.45l2.2-.25c-.13-.13-2.07-1.22-2.2-1.31-.69-.44-1.63-.36-2.64,.22Z"/><path class="cls-6" d="M32.59,41.03l.94,.52c.4,.28,.66,.65,.75,1.42l.88,.52,.16-.5c.04-.97,.05-1.65-.53-2.21l-2.2,.25Z"/><path class="cls-4" d="M34.66,40.68c-.69-.44-1.63-.36-2.64,.23-1.01,.58-1.95,1.59-2.64,2.83-.7,1.25-1.06,2.56-1.01,3.7l.51-.32c-.04-.98,.27-2.12,.87-3.19,.6-1.07,1.41-1.93,2.28-2.44,.87-.5,1.68-.57,2.28-.19,.6,.38,.91,1.16,.87,2.19l.51-.26c.05-1.2-.31-2.1-1.01-2.54Z"/></g></g><g><g><path class="cls-21" d="M23.16,44.98h0c-.49-.28-1.16-.23-1.9,.19-1.49,.86-2.7,2.95-2.7,4.67,0,.87,.31,1.47,.8,1.75l2.11,1.21v-1.54c1.39-.93,2.49-2.9,2.49-4.54,0-.03,0-.07,0-.1h.91l.55-.36-2.24-1.29h-.02Z"/><path class="cls-8" d="M23.44,46.43c-1.49,.86-2.7,2.95-2.7,4.67s1.21,2.42,2.7,1.56c1.49-.86,2.7-2.95,2.7-4.67s-1.21-2.42-2.7-1.56Z"/><path class="cls-11" d="M23.44,47.84c-.82,.47-1.48,1.62-1.48,2.56s.66,1.33,1.48,.85c.82-.47,1.48-1.62,1.48-2.56s-.66-1.33-1.48-.85Z"/><path class="cls-12" d="M23.44,49.21c-.16,.09-.29,.32-.29,.5s.13,.26,.29,.17c.16-.09,.29-.32,.29-.5s-.13-.26-.29-.17Z"/></g><g><path class="cls-1" d="M21.81,44.42c-1.01,.58-1.95,1.59-2.64,2.83-.7,1.25-1.05,2.56-1.01,3.7l2.07,1.21c-.04-.98,.49-2.56,1.09-3.63,.6-1.07,1.26-1.83,2.13-2.33,.87-.5,1.01-.45,1.01-.45l2.2-.25c-.13-.13-2.07-1.22-2.2-1.31-.69-.44-1.63-.36-2.64,.22Z"/><path class="cls-6" d="M24.45,45.75l.83,.46c.35,.23,.73,.53,.85,1.47l.9,.53,.16-.5c.04-.97,.05-1.65-.53-2.21l-2.2,.25Z"/><path class="cls-4" d="M26.52,45.4c-.69-.44-1.63-.36-2.64,.23-1.01,.58-1.95,1.59-2.64,2.83-.7,1.25-1.05,2.56-1.01,3.7l.5-.32c-.04-.98,.27-2.12,.87-3.19,.6-1.07,1.41-1.93,2.28-2.44,.87-.5,1.68-.57,2.28-.19,.6,.38,.91,1.16,.87,2.19l.5-.26c.05-1.2-.31-2.1-1.01-2.54Z"/></g></g><polygon class="cls-22" points="16.69 53.05 22.69 57.98 44.52 45.05 35.35 39.7 16.69 50.49 16.69 53.05"/><g><g><polygon class="cls-7" points="86.14 23.95 87.04 23.43 87.04 20.91 71.85 13.17 86.14 23.95"/><polygon class="cls-17" points="70.34 14.82 86.14 23.95 86.14 21.43 70.34 12.3 70.34 14.82"/><polygon class="cls-22" points="70.34 12.3 86.14 21.43 87.04 20.91 71.24 11.78 70.34 12.3"/></g><g><polygon class="cls-7" points="27.46 45.02 35.93 49.91 39.32 45.81 27.46 42.85 27.46 45.02"/><polygon points="55.5 40.24 52.8 38.68 52.8 37.01 56.12 38.12 55.5 40.24"/><polygon class="cls-17" points="35.93 49.91 55.51 38.62 55.5 40.24 83.39 24.11 83.39 20.35 35.93 47.74 35.93 49.91"/><polygon class="cls-22" points="35.93 47.74 83.39 20.35 74.92 15.46 27.46 42.85 35.93 47.74"/></g><g><g><path class="cls-21" d="M78.56,25.89h0c-.49-.28-1.16-.23-1.9,.19-1.49,.86-2.7,2.95-2.7,4.67,0,.87,.31,1.47,.8,1.75l2.11,1.21v-1.54c1.39-.93,2.49-2.9,2.49-4.54,0-.03,0-.07,0-.1h.91l.56-.36-2.24-1.29h-.02Z"/><path class="cls-8" d="M78.85,27.33c-1.49,.86-2.7,2.95-2.7,4.67s1.21,2.42,2.7,1.56c1.49-.86,2.7-2.95,2.7-4.67s-1.21-2.42-2.7-1.56Z"/><path class="cls-11" d="M78.85,28.74c-.82,.47-1.48,1.62-1.48,2.56s.66,1.33,1.48,.85c.82-.47,1.48-1.62,1.48-2.56s-.66-1.33-1.48-.85Z"/><path class="cls-12" d="M78.85,30.11c-.16,.09-.29,.32-.29,.5s.13,.26,.29,.17c.16-.09,.29-.32,.29-.5s-.13-.26-.29-.17Z"/></g><g><path class="cls-1" d="M77.2,25.31c-1.01,.58-1.95,1.59-2.64,2.83-.7,1.25-1.06,2.56-1.01,3.7l2.07,1.21c-.04-.98,.49-2.56,1.09-3.63,.6-1.07,1.25-1.83,2.13-2.33,.87-.5,1.01-.45,1.01-.45l2.2-.25c-.13-.13-2.07-1.22-2.2-1.31-.69-.44-1.63-.36-2.64,.22Z"/><path class="cls-6" d="M79.84,26.64l.94,.52c.4,.28,.66,.65,.75,1.42l.88,.52,.16-.5c.04-.97,.05-1.65-.53-2.21l-2.2,.25Z"/><path class="cls-4" d="M81.91,26.29c-.69-.44-1.63-.36-2.64,.23-1.01,.58-1.95,1.59-2.64,2.83-.7,1.25-1.05,2.56-1.01,3.7l.51-.32c-.04-.98,.27-2.12,.87-3.19,.6-1.07,1.41-1.93,2.28-2.44,.87-.5,1.68-.57,2.28-.19,.6,.38,.91,1.16,.87,2.19l.51-.26c.05-1.2-.31-2.1-1.01-2.54Z"/></g></g><g><g><path class="cls-21" d="M70.41,30.6h0c-.49-.28-1.16-.23-1.9,.19-1.49,.86-2.7,2.95-2.7,4.67,0,.87,.31,1.47,.8,1.75l2.11,1.21v-1.54c1.39-.93,2.49-2.9,2.49-4.54,0-.03,0-.06,0-.1h.91l.55-.36-2.24-1.29h-.02Z"/><path class="cls-8" d="M70.69,32.04c-1.49,.86-2.7,2.95-2.7,4.67s1.21,2.42,2.7,1.56c1.49-.86,2.7-2.95,2.7-4.67s-1.21-2.42-2.7-1.56Z"/><path class="cls-11" d="M70.69,33.45c-.82,.47-1.48,1.62-1.48,2.56s.66,1.33,1.48,.85c.82-.47,1.48-1.62,1.48-2.56s-.66-1.33-1.48-.85Z"/><path class="cls-12" d="M70.69,34.82c-.16,.09-.29,.32-.29,.5s.13,.26,.29,.17c.16-.09,.29-.32,.29-.5s-.13-.26-.29-.17Z"/></g><g><path class="cls-1" d="M69.06,30.03c-1.01,.58-1.95,1.59-2.64,2.83-.7,1.25-1.05,2.56-1.01,3.7l2.07,1.21c-.04-.99,.49-2.56,1.09-3.63,.6-1.07,1.26-1.83,2.13-2.33,.87-.5,1.01-.45,1.01-.45l2.2-.25c-.13-.13-2.07-1.22-2.2-1.31-.69-.44-1.63-.36-2.64,.23Z"/><path class="cls-6" d="M71.7,31.36l.83,.46c.35,.23,.73,.53,.85,1.47l.89,.53,.16-.5c.04-.97,.05-1.65-.53-2.21l-2.2,.25Z"/><path class="cls-4" d="M73.77,31.01c-.69-.44-1.63-.36-2.64,.23-1.01,.58-1.95,1.59-2.64,2.83-.7,1.25-1.06,2.56-1.01,3.7l.5-.32c-.04-.98,.27-2.12,.87-3.19,.6-1.07,1.41-1.93,2.28-2.44,.87-.5,1.68-.57,2.28-.19,.6,.38,.91,1.16,.87,2.19l.5-.26c.05-1.2-.31-2.1-1.01-2.54Z"/></g></g><g><polygon class="cls-7" points="56.55 42.2 54.91 41.27 54.91 38.78 56.9 39.49 56.55 42.2"/><polygon class="cls-17" points="56.9 41.98 56.55 42.2 56.55 39.71 56.9 39.49 56.9 41.98"/><polygon class="cls-22" points="56.9 39.49 56.55 39.71 54.91 38.78 55.27 38.56 56.9 39.49"/><polygon class="cls-7" points="49.33 45.26 48.53 44.8 48.53 43.58 54.6 41 49.33 45.26"/><polygon class="cls-17" points="56.12 41.35 49.33 45.26 49.33 44.04 56.12 40.13 56.12 41.35"/><polygon class="cls-22" points="56.12 40.13 49.33 44.04 48.53 43.58 55.32 39.67 56.12 40.13"/></g><g><polygon class="cls-7" points="48.03 45.02 46.67 44.23 46.67 41.04 49.39 41.04 48.03 45.02"/><polygon class="cls-17" points="50.91 43.36 48.03 45.02 48.03 41.83 50.91 40.17 50.91 43.36"/><polygon class="cls-22" points="50.91 40.17 48.03 41.83 46.67 41.04 49.55 39.38 50.91 40.17"/></g><g><polygon class="cls-7" points="60.29 37.03 57.35 35.33 57.35 34.42 84.18 22.32 60.29 37.03"/><polygon class="cls-17" points="85.69 22.35 60.29 37.03 60.29 36.12 85.69 21.44 85.69 22.35"/><polygon class="cls-22" points="85.69 21.44 60.29 36.12 57.35 34.42 82.75 19.75 85.69 21.44"/></g><g><polygon class="cls-10" points="39.32 45.81 40.41 46.44 40.41 44.32 39.32 43.69 39.32 45.81"/><polygon class="cls-9" points="40.41 44.32 84.72 18.73 83.63 18.11 39.32 43.69 40.41 44.32"/><polygon class="cls-5" points="40.41 46.44 84.72 20.85 84.72 18.73 40.41 44.32 40.41 46.44"/></g><g><polygon class="cls-10" points="29.77 40.29 30.85 40.92 30.85 38.8 29.77 38.17 29.77 40.29"/><polygon class="cls-9" points="30.85 38.8 75.16 13.21 74.08 12.59 29.77 38.17 30.85 38.8"/><polygon class="cls-5" points="30.85 40.92 75.16 15.33 75.16 13.21 30.85 38.8 30.85 40.92"/></g><g><path class="cls-4" d="M74.19,.51c2.87-1.66,7.42,.87,10.18,5.63,2.75,4.77,2.66,9.97-.21,11.63-2.87,1.66-7.42-.87-10.18-5.63-2.75-4.77-2.66-9.97,.21-11.63Z"/><path class="cls-2" d="M73.1,.5L26.24,27.56l10.53,18.24,46.85-27.07c1.35-.78,2.18-2.44,2.18-4.82,0-4.75-3.33-10.52-7.45-12.9-2.06-1.18-3.91-1.29-5.26-.52Z"/><polygon class="cls-19" points="77.14 18.92 39.82 40.52 39.82 41.59 84.69 15.68 77.14 18.92"/><polygon class="cls-7" points="69.45 22.81 39.82 39.93 39.82 38.38 65.48 23.56 69.45 22.81"/><path class="cls-4" d="M26.21,27.58c-.06,.03-.2,.13-.4,.28-.03,.02-.05,.04-.08,.06-.71,.56-1.98,1.82-2.41,3.92v.05c-.05,.18-.08,.37-.1,.57,0,.07-.02,.14-.03,.21,0,.03,0,.06-.01,.09h0c-.19,2.23,.46,4.98,1.97,7.59,1.51,2.61,3.56,4.55,5.58,5.49h0s.06,.04,.09,.05c.05,.02,.11,.05,.16,.07,.2,.09,.39,.16,.58,.22h.01c2.05,.69,3.79,.21,4.63-.12,.02,0,.04-.02,.06-.03,.27-.11,.44-.2,.47-.22,1.35-.77,2.19-2.44,2.2-4.82,0-4.75-3.33-10.52-7.45-12.9-2.07-1.19-3.94-1.3-5.29-.5Z"/><g><g><path class="cls-9" d="M44.5,22.58v-1.26h-6.99v1.26c0,.52,.34,1.03,1.02,1.43,1.37,.79,3.58,.79,4.94,0,.68-.4,1.02-.91,1.02-1.43Z"/><path class="cls-14" d="M43.48,22.74c-1.37,.79-3.58,.79-4.94,0-1.36-.79-1.36-2.07,0-2.85,1.37-.79,3.58-.79,4.94,0,1.36,.79,1.36,2.06,0,2.85Z"/></g><g><path class="cls-9" d="M43.83,21.22v-.24h-5.64v.24c0,.42,.27,.83,.83,1.15,1.1,.64,2.89,.64,3.99,0,.55-.32,.82-.73,.82-1.15Z"/><path class="cls-14" d="M43,22.15c-1.1,.64-2.89,.64-3.99,0-1.1-.64-1.1-1.67,0-2.3,1.1-.64,2.89-.64,3.99,0,1.1,.64,1.1,1.67,0,2.3Z"/></g></g><g><g><path class="cls-9" d="M73.59,5.78v-1.26h-6.99v1.26c0,.52,.34,1.03,1.02,1.43,1.37,.79,3.58,.79,4.94,0,.68-.4,1.02-.91,1.02-1.43Z"/><path class="cls-14" d="M72.57,5.93c-1.37,.79-3.58,.79-4.94,0-1.36-.79-1.36-2.06,0-2.85,1.37-.79,3.58-.79,4.94,0,1.36,.79,1.36,2.06,0,2.85Z"/></g><g><path class="cls-9" d="M72.92,4.41v-.24l-5.64,.02v.22c0,.42,.27,.83,.83,1.15,1.1,.64,2.89,.64,3.99,0,.55-.32,.82-.73,.82-1.15Z"/><path class="cls-14" d="M72.09,5.34c-1.1,.64-2.89,.64-3.99,0-1.1-.64-1.1-1.67,0-2.3,1.1-.64,2.89-.64,3.99,0,1.1,.64,1.1,1.67,0,2.3Z"/></g></g></g></g><g><g><path class="cls-21" d="M42.31,46.7h0c-.49-.28-1.16-.23-1.9,.19-1.49,.86-2.7,2.95-2.7,4.67,0,.87,.31,1.47,.8,1.75l2.11,1.21v-1.54c1.39-.93,2.49-2.9,2.49-4.54,0-.03,0-.07,0-.1h.91l.56-.36-2.24-1.29h-.02Z"/><path class="cls-8" d="M42.6,48.15c-1.49,.86-2.7,2.95-2.7,4.67s1.21,2.42,2.7,1.56c1.49-.86,2.7-2.95,2.7-4.67s-1.21-2.42-2.7-1.56Z"/><path class="cls-11" d="M42.6,49.55c-.82,.47-1.48,1.62-1.48,2.56s.66,1.33,1.48,.85c.82-.47,1.48-1.62,1.48-2.56s-.66-1.33-1.48-.85Z"/><path class="cls-12" d="M42.6,50.93c-.16,.09-.29,.32-.29,.5s.13,.26,.29,.17c.16-.09,.29-.32,.29-.5s-.13-.26-.29-.17Z"/></g><g><path class="cls-1" d="M40.95,46.12c-1.01,.58-1.95,1.59-2.64,2.83-.7,1.25-1.06,2.56-1.01,3.71l2.07,1.21c-.04-.98,.49-2.56,1.09-3.63,.6-1.07,1.25-1.83,2.13-2.33,.87-.5,1.01-.45,1.01-.45l2.2-.25c-.13-.13-2.07-1.22-2.2-1.31-.69-.44-1.63-.36-2.64,.22Z"/><path class="cls-6" d="M43.59,47.45l.94,.52c.4,.28,.66,.65,.75,1.42l.88,.52,.16-.5c.04-.97,.05-1.65-.53-2.21l-2.2,.25Z"/><path class="cls-4" d="M45.66,47.11c-.69-.44-1.63-.36-2.64,.23-1.01,.58-1.95,1.59-2.64,2.83-.7,1.25-1.06,2.56-1.01,3.7l.51-.32c-.04-.98,.27-2.12,.87-3.19,.6-1.07,1.41-1.93,2.28-2.44,.87-.5,1.68-.57,2.28-.19,.6,.38,.91,1.16,.87,2.19l.51-.26c.05-1.2-.31-2.1-1.01-2.54Z"/></g></g><g><g><path class="cls-21" d="M34.16,51.41h0c-.49-.28-1.16-.23-1.9,.19-1.49,.86-2.7,2.95-2.7,4.67,0,.87,.31,1.47,.8,1.75l2.11,1.21v-1.54c1.39-.93,2.49-2.9,2.49-4.54,0-.03,0-.07,0-.1h.91l.55-.36-2.24-1.29h-.02Z"/><path class="cls-8" d="M34.44,52.86c-1.49,.86-2.7,2.95-2.7,4.67s1.21,2.42,2.7,1.56c1.49-.86,2.7-2.95,2.7-4.67s-1.21-2.42-2.7-1.56Z"/><path class="cls-11" d="M34.44,54.26c-.82,.47-1.48,1.62-1.48,2.56s.66,1.33,1.48,.85c.82-.47,1.48-1.62,1.48-2.56s-.66-1.33-1.48-.85Z"/><path class="cls-12" d="M34.44,55.64c-.16,.09-.29,.32-.29,.5s.13,.26,.29,.17c.16-.09,.29-.32,.29-.5s-.13-.26-.29-.17Z"/></g><g><path class="cls-1" d="M32.81,50.84c-1.01,.58-1.95,1.59-2.64,2.83-.7,1.25-1.05,2.56-1.01,3.7l2.07,1.21c-.04-.98,.49-2.56,1.09-3.63,.6-1.07,1.26-1.83,2.13-2.33,.87-.5,1.01-.45,1.01-.45l2.2-.25c-.13-.13-2.07-1.22-2.2-1.31-.69-.44-1.63-.36-2.64,.23Z"/><path class="cls-6" d="M35.45,52.17l.83,.46c.35,.23,.73,.53,.85,1.47l.9,.53,.16-.5c.04-.97,.05-1.65-.53-2.21l-2.2,.25Z"/><path class="cls-4" d="M37.52,51.83c-.69-.44-1.63-.36-2.64,.23-1.01,.58-1.95,1.59-2.64,2.83-.7,1.25-1.05,2.56-1.01,3.7l.5-.32c-.04-.98,.27-2.12,.87-3.19,.6-1.07,1.41-1.93,2.28-2.44,.87-.5,1.68-.57,2.28-.19,.6,.38,.91,1.16,.87,2.19l.5-.26c.05-1.2-.31-2.1-1.01-2.54Z"/></g></g><g><path class="cls-5" d="M29.93,55.36c-.46-.26-.87-.28-1.16-.09h0l-6.38,3.7,2.14,3.97,6.51-3.77,.03-.02h.02c.27-.19,.43-.54,.43-1.03,0-1.02-.72-2.26-1.6-2.77Z"/><path class="cls-10" d="M23.43,59.13c-.88-.51-1.6-.1-1.6,.92s.72,2.26,1.6,2.77c.88,.51,1.6,.1,1.6-.92s-.72-2.26-1.6-2.77Z"/><path class="cls-22" d="M25.05,58.19c-.44-.26-.84-.28-1.13-.11l-.16,.1c.29-.17,.69-.14,1.13,.11,.88,.51,1.6,1.75,1.6,2.77,0,.53-.19,.89-.5,1.05l.16-.1c.31-.16,.5-.52,.5-1.05,0-1.02-.72-2.26-1.6-2.77Z"/><path class="cls-22" d="M26.93,57.1c-.44-.25-.84-.28-1.13-.11l-.16,.1c.29-.17,.69-.14,1.13,.11,.88,.51,1.6,1.75,1.6,2.77,0,.53-.19,.9-.5,1.05l.16-.1c.31-.16,.5-.52,.5-1.05,0-1.02-.72-2.26-1.6-2.77Z"/><path class="cls-22" d="M28.55,56.16c-.44-.25-.84-.28-1.13-.11l-.16,.1c.29-.17,.69-.14,1.13,.11,.88,.51,1.6,1.75,1.6,2.77,0,.53-.19,.89-.5,1.05l.16-.1c.31-.16,.5-.52,.5-1.05,0-1.02-.72-2.26-1.6-2.77Z"/></g><g><path class="cls-21" d="M19.35,59.99h0c-.49-.28-1.16-.23-1.9,.19-1.49,.86-2.7,2.95-2.7,4.67,0,.87,.31,1.47,.8,1.75l2.11,1.21v-1.54c1.39-.93,2.49-2.9,2.49-4.54,0-.03,0-.07,0-.1h.91l.56-.36-2.24-1.29h-.02Z"/><path class="cls-8" d="M19.63,61.43c-1.49,.86-2.7,2.95-2.7,4.67s1.21,2.42,2.7,1.56c1.49-.86,2.7-2.95,2.7-4.67s-1.21-2.42-2.7-1.56Z"/><path class="cls-11" d="M19.63,62.84c-.82,.47-1.48,1.62-1.48,2.56s.66,1.33,1.48,.85c.82-.47,1.48-1.62,1.48-2.56s-.66-1.33-1.48-.85Z"/><path class="cls-12" d="M19.63,64.21c-.16,.09-.29,.32-.29,.5s.13,.26,.29,.17c.16-.09,.29-.32,.29-.5s-.13-.26-.29-.17Z"/></g><g><polygon class="cls-15" points="13.86 64.69 .34 56.33 .35 50.48 13.79 57.52 13.86 64.69"/><polygon class="cls-24" points="13.47 61.54 .34 53.95 .34 53.79 13.47 61.37 13.47 61.54"/><polygon class="cls-24" points="13.47 62.7 .34 55.11 .34 54.95 13.47 62.53 13.47 62.7"/><polygon class="cls-24" points="13.47 60.21 .34 52.63 .34 52.46 13.47 60.04 13.47 60.21"/><polygon class="cls-23" points="1.5 61.56 13.25 68.32 13.25 68.03 1.5 61.06 1.5 61.56"/><polygon class="cls-1" points=".06 57.06 13.06 64.64 13.25 64.54 .24 56.95 .06 57.06"/><polygon class="cls-26" points="14.47 57.06 21.01 53.36 20.91 49.02 14.75 52.57 14.47 57.06"/><polygon class="cls-18" points="14.6 56.35 20.47 52.96 20.47 49.32 20.93 49.16 21.07 53.38 14.7 56.91 14.6 56.35"/><path class="cls-23" d="M14.85,50.11c-.29,.5-.45,.78-.74,1.28v5.5l-.64,1.27v9.78l1.38-.8,1.22-.7c-.02-.14-.02-.28-.02-.42,0-2.05,1.44-4.55,3.22-5.58,1.07-.62,2.02-.56,2.6,.03l4.75-2.75v-13.56c-.29-.17-.45-.26-.74-.43l-11.03,6.37Zm5.84,2.98l-5.91,3.42,.19-3.7,5.72-3.31v3.58Z"/><path class="cls-1" d="M19.26,60.18c-1.01,.58-1.95,1.59-2.64,2.83-.7,1.25-1.05,2.56-1.01,3.7l.8,.48c-.04-.98,.49-2.56,1.09-3.63,.6-1.07,1.26-1.83,2.13-2.33,.87-.5,1.01-.45,1.01-.45l2.2-.25c-.13-.13-.81-.49-.94-.57-.69-.44-1.63-.36-2.64,.23Z"/><path class="cls-6" d="M20.64,60.78l.97,.51c.35,.23,.64,.66,.71,1.42l.89,.53,.16-.5c.04-.97,.05-1.65-.53-2.21l-2.2,.25Z"/><path class="cls-4" d="M22.71,60.43c-.69-.44-1.63-.36-2.64,.22-1.01,.58-1.95,1.59-2.64,2.83-.7,1.25-1.06,2.56-1.01,3.7l.51-.32c-.04-.98,.27-2.12,.87-3.19,.6-1.07,1.41-1.93,2.28-2.44,.87-.5,1.68-.57,2.28-.19,.6,.38,.91,1.16,.87,2.19l.5-.26c.05-1.2-.31-2.1-1.01-2.54Z"/><polygon class="cls-23" points="13.25 68.32 14.86 67.39 14.86 63.17 13.25 64.1 13.25 68.32"/><polygon class="cls-6" points="13.06 68.13 13.25 68.03 13.25 64.54 13.06 64.64 13.06 68.13"/><path class="cls-24" d="M22.09,48.7c-.11,.19-.17,.3-.28,.49v2.93c.11,.06,.17,.1,.28,.16l2.67-1.54c.11-.19,.17-.3,.28-.49v-2.93c-.11-.06-.17-.1-.28-.16l-2.67,1.54Z"/><path class="cls-24" d="M25.07,46.19l-3.94,2.28h0l-5.84,3.37v.23l5.84-3.37v8.5l-5.83,3.36v-4.25l-.2,.12v10.26l.2-.12c0-2.68,1.7-5.77,3.87-7.02,.67-.39,1.35-.58,2.01-.57h0s.93,0,1.56,.78l.03,.04,2.99-1.73v-11.48l-.69-.4Zm-3.94,12.53c-.65,.02-1.31,.22-1.96,.6-1.83,1.06-3.34,3.34-3.87,5.66v-4.18l5.83-3.36v1.29Zm4.43-.78l-2.68,1.55c-.57-.68-1.34-.76-1.55-.78v-1.41l2.59-1.49,1.64-.95v3.07Zm0-3.31l-2.59,1.49-1.64,.95v-8.5l3.66-2.11,.57,.33v7.84Z"/><path class="cls-24" d="M20.2,54.37l-.54,.31c-.12,.07-.21,.23-.21,.37h0c0,.14,.09,.2,.21,.13l.54-.31c.12-.07,.21-.23,.21-.37h0c0-.14-.1-.2-.21-.13Z"/><polygon class="cls-7" points="26.62 56.26 27.62 55.68 27.62 47.97 26.62 47.54 26.62 56.26"/><polygon class="cls-22" points="27.62 55.68 28.14 55.38 28.14 49.79 27.62 50.09 27.62 55.68"/><polygon class="cls-4" points=".06 60.55 13.06 68.13 13.06 64.64 .06 57.06 .06 60.55"/><polygon class="cls-2" points="4.15 61.68 8.49 64.19 8.49 63.16 4.15 60.65 4.15 61.68"/><g><polygon class="cls-6" points=".45 59.95 3.34 61.61 3.34 59.67 .45 58.01 .45 59.95"/><polygon class="cls-13" points=".73 59.92 2.96 61.21 2.96 59.71 .73 58.42 .73 59.92"/></g><g><polygon class="cls-6" points="9.57 65.22 12.46 66.88 12.46 64.94 9.57 63.28 9.57 65.22"/><polygon class="cls-13" points="9.85 65.19 12.08 66.47 12.08 64.97 9.85 63.68 9.85 65.19"/></g><polygon class="cls-15" points=".24 56.95 13.25 64.54 13.25 64.1 .24 56.51 .24 56.95"/><polygon class="cls-3" points=".24 56.51 13.25 64.1 13.47 63.98 .34 56.33 .24 56.51"/><polygon class="cls-16" points="1.1 43.8 14.11 51.39 14.85 50.11 1.84 42.52 1.1 43.8"/><polygon class="cls-3" points="1.84 42.52 14.85 50.11 25.88 43.73 12.88 36.15 1.84 42.52"/><polygon class="cls-15" points="1.1 44.75 14.11 52.38 14.11 51.39 1.1 43.8 1.1 44.75"/><polygon class="cls-15" points=".99 49.21 14.11 56.89 14.32 53.1 1.36 45.82 .99 49.21"/><polygon class="cls-18" points="13.87 56.19 13.85 56.39 1.27 49.02 1.59 46.04 1.76 46.14 1.46 48.93 13.87 56.19"/><polygon class="cls-26" points="14.04 53.06 13.87 56.19 1.46 48.93 1.76 46.14 14.04 53.06"/><polygon class="cls-20" points="3.97 47.76 1.81 49.02 2.02 46.63 3.97 47.76"/><g><polygon class="cls-17" points="11.57 55.4 12.39 55.87 12.42 55.67 11.76 55.3 11.57 55.4"/><path class="cls-7" d="M10.57,54.38h0l.74,.58,.07-.09-.82-.61h0l-2.39-1.79-.03,.03,1.44,1.13h-.03l-.88-.67-.03,.03,1.75,1.41,1.38,1.11,.08-.09-1.32-1.02h.04Zm-.18-.13v.02l-.73-.57v-.03l.75,.58h-.01Z"/></g><g><polygon class="cls-17" points="5.46 51.85 6.28 52.32 6.31 52.11 5.65 51.74 5.46 51.85"/><path class="cls-7" d="M4.47,50.83h0l.74,.58,.07-.09-.82-.61h0l-2.39-1.79-.03,.03,1.44,1.13h-.03l-.88-.67-.03,.03,1.75,1.41,1.38,1.11,.08-.09-1.32-1.02h.04Zm-.18-.13v.02l-.74-.57v-.03l.75,.58h-.01Z"/></g><polygon class="cls-23" points="13.79 53.49 15.29 52.62 15.29 51.28 13.79 52.15 13.79 53.49"/><polygon class="cls-15" points=".78 45.9 13.79 53.49 13.79 52.15 .78 44.56 .78 45.9"/><polygon class="cls-3" points=".35 50.48 13.47 58.16 14.11 56.89 .99 49.21 .35 50.48"/><polygon class="cls-16" points=".78 44.56 13.79 52.15 14.11 51.96 1.1 44.37 .78 44.56"/><polygon class="cls-5" points="27.62 50.09 28.14 49.79 27.62 49.49 27.62 50.09"/><g><polygon class="cls-22" points="14.69 58.07 13.47 58.78 12.26 58.07 11.99 58.23 13.47 59.09 14.95 58.23 14.69 58.07"/><polygon class="cls-7" points="1.78 52.02 0 51.32 0 55.91 1.49 56.77 1.78 52.02"/><polygon class="cls-22" points="1.78 52.02 .35 51.2 .35 51.12 0 51.32 1.49 52.18 1.78 52.02"/><polygon class="cls-7" points="13.47 63.68 11.99 62.82 11.99 58.23 13.47 59.09 13.47 63.68"/><polygon class="cls-17" points="13.47 63.68 14.94 62.82 14.94 58.23 13.47 59.09 13.47 63.68"/><polygon class="cls-17" points="1.49 56.77 1.78 56.61 1.78 52.02 1.49 52.18 1.49 56.77"/></g><polygon class="cls-17" points="9.13 58.05 4.66 55.47 4.66 54.65 9.13 57.23 9.13 58.05"/><polygon class="cls-17" points="9.13 59.3 4.66 56.72 4.66 55.9 9.13 58.48 9.13 59.3"/><polygon class="cls-17" points="9.13 60.52 4.66 57.94 4.66 57.12 9.13 59.7 9.13 60.52"/></g></g></g></svg>